<svg version="1.1" id="Layer_1" xmlns="http://www.w3.org/2000/svg" xmlns:xlink="http://www.w3.org/1999/xlink" x="0px" y="0px"
	 width="100%" viewBox="0 0 1024 1024" enable-background="new 0 0 1024 1024" xml:space="preserve">
<path fill="#000000" opacity="1.000000" stroke="none" 
	d="
M286.213043,718.365967 
	C288.096100,708.698059 292.856445,702.200562 301.792542,698.018188 
	C315.527283,691.589783 326.580902,681.283447 337.228943,670.666870 
	C355.161469,652.787354 373.237213,635.055969 390.938751,616.937927 
	C403.606842,603.971924 417.531158,592.242981 430.597137,579.652954 
	C440.658417,569.958191 449.938446,559.443481 460.127502,549.892517 
	C480.412201,530.878174 499.384674,510.481964 520.668213,492.519409 
	C525.543823,488.404541 531.226868,486.158936 537.245117,484.785309 
	C542.404724,483.607605 546.205688,480.635620 549.725403,477.026886 
	C562.171814,464.266022 574.572876,451.460602 587.067871,438.747559 
	C611.346863,414.044891 636.333374,390.064301 661.279053,366.039886 
	C679.638794,348.358246 697.781982,330.451630 716.007935,312.631226 
	C723.625122,305.183502 731.890442,298.386597 738.676453,290.103699 
	C740.031372,288.449890 741.741638,286.959564 741.557922,284.512238 
	C741.120911,278.690552 737.651306,276.857239 732.772827,280.414459 
	C722.393372,287.982635 713.323547,297.074554 703.972412,305.850128 
	C682.722656,325.791992 662.496582,346.784760 641.098511,366.578583 
	C629.011230,377.759705 617.983887,390.102600 605.715698,401.068146 
	C590.194397,414.941345 575.600281,429.753784 560.828857,444.355499 
	C534.289368,470.590027 505.855469,494.728790 478.701843,520.269897 
	C471.817169,526.745728 464.022156,532.236755 458.400513,540.093079 
	C455.710785,543.851929 451.295410,542.289795 449.734436,536.833679 
	C447.406494,528.697021 445.245422,520.467834 443.749390,512.145691 
	C437.621887,478.059875 446.742767,447.981262 468.357971,421.369720 
	C471.504852,417.495453 474.893799,413.817993 478.163391,410.043060 
	C479.805450,408.147217 481.720795,406.648346 484.227448,405.383423 
	C486.159454,408.606445 485.339142,411.807983 485.280548,414.792328 
	C484.890350,434.670288 489.536072,453.346954 498.445709,471.017273 
	C499.566864,473.240845 500.260193,476.871948 503.606079,476.114380 
	C507.022278,475.340851 506.926941,471.832916 506.609314,468.997742 
	C505.575775,459.773163 504.488831,450.551117 503.201813,441.358978 
	C498.612457,408.582001 506.258667,379.682678 529.844727,355.644348 
	C539.200623,346.109100 549.215515,337.344360 559.636108,329.019348 
	C561.568542,327.475525 563.624207,326.118958 565.926208,325.894318 
	C567.563782,327.130676 567.369080,328.557373 567.236450,329.817291 
	C565.433899,346.942963 566.187988,364.066559 567.413086,381.170166 
	C567.912048,388.135071 569.495117,394.965332 571.941772,401.531769 
	C572.628052,403.373688 573.696777,405.129639 574.871460,406.716736 
	C575.995117,408.234955 577.649292,409.281006 579.659424,408.557190 
	C581.561829,407.872192 581.685852,406.067291 581.679626,404.373352 
	C581.667358,401.050201 581.072021,397.706818 581.041443,394.452271 
	C580.855957,374.689148 579.328857,354.907318 583.168640,335.220184 
	C587.388977,313.582184 599.200012,298.527252 617.846313,286.595398 
	C654.843445,262.920654 694.414124,246.485367 737.590393,238.985428 
	C749.494141,236.917709 761.732544,236.745682 773.827881,235.844849 
	C775.773804,235.699921 777.768188,236.411209 779.751831,236.527069 
	C783.956970,236.772659 785.407043,239.004456 785.395142,243.081375 
	C785.339783,262.011292 781.516724,280.358368 777.131409,298.632202 
	C771.186035,323.406952 761.748474,346.959442 749.187988,368.936798 
	C740.112732,384.816010 730.931458,401.379395 714.499756,411.412994 
	C695.352600,423.104767 675.128113,431.766510 651.968445,430.304291 
	C641.199036,429.624298 630.484009,428.409729 619.879700,426.291901 
	C612.018982,424.722015 612.000000,424.817047 607.602539,433.012207 
	C621.331543,440.951782 636.665100,442.857025 651.863464,444.438385 
	C667.186279,446.032684 682.236145,443.419373 696.479309,437.805939 
	C698.009399,440.226746 696.943176,441.620544 695.810974,442.831390 
	C677.652405,462.251099 661.010315,483.423096 636.679443,495.894684 
	C621.272644,503.791962 604.879944,509.319214 587.491089,509.067780 
	C570.328430,508.819550 553.510803,505.064758 537.445374,498.797455 
	C534.360779,497.594116 532.900818,497.903381 530.737244,500.259857 
	C517.678589,514.482910 505.161621,529.314209 491.090515,542.474060 
	C459.837799,571.702759 429.971771,602.317017 399.598999,632.418030 
	C379.260773,652.574280 359.905090,673.719727 341.212311,695.449707 
	C333.466522,704.454041 328.762512,714.667480 327.397156,726.394897 
	C326.908112,730.595459 324.771698,732.960876 321.262482,735.304932 
	C307.031464,744.810913 291.773621,752.923462 279.566864,765.270813 
	C277.708557,767.150635 275.495911,768.706543 273.332001,770.250793 
	C270.898529,771.987366 268.354767,773.045044 265.673889,770.521057 
	C262.985931,767.990356 263.976532,765.369263 265.469482,762.827881 
	C268.000275,758.519958 270.602203,754.250732 273.284973,750.035767 
	C279.436615,740.370728 283.404053,729.827087 286.213043,718.365967 
M294.657257,722.703552 
	C297.394562,727.203247 300.930145,730.874756 306.074127,732.426147 
	C308.053772,733.023193 310.427460,733.156677 311.955322,731.023560 
	C313.282898,729.170105 312.169922,727.453186 311.290802,725.948547 
	C309.067657,722.143616 305.732269,719.421570 301.911621,717.336975 
	C296.555176,714.414551 294.718414,715.599976 294.657257,722.703552 
z"/>
<path fill="#000000" opacity="1.000000" stroke="none" 
	d="
M520.998657,670.645813 
	C576.637878,670.053589 625.869934,652.911072 667.523865,616.484070 
	C701.161194,587.067749 726.144043,551.567017 737.933167,507.803162 
	C745.118958,481.127991 748.310303,453.988159 746.587097,426.349274 
	C746.515259,425.197235 746.073792,424.069733 745.986084,422.917023 
	C745.521790,416.813141 744.979370,411.131500 749.709106,405.624847 
	C754.177917,400.422089 757.686096,394.166046 760.055603,387.477112 
	C760.789551,385.405579 761.036987,382.278320 763.826782,382.160614 
	C766.477234,382.048767 767.458984,384.912048 768.343750,386.956787 
	C774.938416,402.197876 781.947205,417.178467 785.891541,433.551086 
	C791.221130,455.673462 794.428223,477.939758 794.109314,500.617798 
	C793.682922,530.929871 788.057678,560.360474 778.041443,589.014771 
	C765.334229,625.367004 745.526184,657.434814 720.445312,686.433594 
	C693.332520,717.781738 659.276184,739.010559 621.212769,754.289062 
	C594.363464,765.066406 566.557007,772.009521 537.645325,774.397827 
	C497.435852,777.719421 459.217743,769.395203 422.206726,754.541321 
	C397.565521,744.651917 374.351532,732.018921 352.836853,716.335083 
	C349.693542,714.043701 349.712677,712.054749 351.741089,709.359375 
	C357.144867,702.178711 362.613617,695.045898 367.941345,687.809326 
	C371.153748,683.445984 374.103851,686.469116 376.324585,688.428406 
	C383.488312,694.748474 391.354919,700.073303 399.445831,704.998596 
	C422.287415,718.903320 446.425476,729.784424 472.443481,736.547729 
	C497.618774,743.091919 523.104370,746.140381 549.004456,744.527466 
	C570.225891,743.205811 590.456360,737.156006 610.423584,730.020447 
	C661.956604,711.604492 700.344666,677.162415 730.061829,632.215698 
	C749.237976,603.212158 760.286926,570.884338 767.584595,537.131165 
	C772.553223,514.150574 772.918640,490.936768 770.745056,467.658966 
	C769.528015,454.624695 768.557556,441.436371 761.776611,429.673096 
	C761.458069,429.120544 761.140625,428.567383 760.452209,427.370178 
	C759.770325,435.994781 760.798767,443.891449 761.781616,451.624695 
	C763.684265,466.595306 763.107849,481.490875 762.095581,496.405212 
	C760.303650,522.809631 753.623108,548.188965 744.308289,572.797241 
	C732.962219,602.771606 717.193909,630.170654 695.209717,653.867798 
	C678.775391,671.582581 660.795837,687.346436 639.726196,699.159180 
	C611.845703,714.790466 581.685974,723.826233 550.083740,728.282166 
	C536.568726,730.187805 523.187378,728.481567 509.803558,727.188965 
	C480.472504,724.356262 452.740295,715.742676 426.800934,702.006409 
	C412.731049,694.555603 398.451294,687.162231 386.277832,676.558167 
	C380.695648,671.695679 380.819794,671.782288 386.324127,667.177368 
	C394.366882,660.448853 402.115234,653.363098 408.753754,645.201904 
	C410.252747,643.359131 411.559326,643.184204 413.426788,644.197083 
	C435.487732,656.162842 459.488586,662.253113 483.842499,667.103210 
	C495.912048,669.506836 508.201874,670.400269 520.998657,670.645813 
z"/>
<path fill="#000000" opacity="1.000000" stroke="none" 
	d="
M577.383423,228.459076 
	C599.898499,233.253159 621.190552,240.198486 641.415894,250.389099 
	C640.018677,254.276596 637.046936,254.175964 635.056885,255.461243 
	C630.029053,258.708527 624.767151,261.605011 619.840393,264.993042 
	C616.288452,267.435669 613.111938,265.953094 609.895691,264.786377 
	C594.538635,259.215424 578.838318,254.920868 562.720093,252.301392 
	C540.778259,248.735443 518.731995,248.591675 496.572906,250.127197 
	C468.489655,252.073242 441.842834,259.406158 416.465668,271.140686 
	C380.377960,287.827759 349.957611,311.919800 324.704285,342.724426 
	C299.955139,372.914062 286.190033,407.993256 277.356537,445.440460 
	C271.696777,469.433563 270.127655,493.811951 271.486267,518.295471 
	C273.106384,547.491333 280.947327,575.234924 293.160431,601.778564 
	C301.189606,619.229065 310.561768,635.897644 322.029816,651.314697 
	C325.012451,655.324341 325.201569,658.393677 321.661530,662.090637 
	C317.993317,665.921631 314.051605,669.547668 311.263611,674.192810 
	C309.877960,676.501465 308.344604,675.630493 307.024963,673.773804 
	C278.054291,633.011841 255.780869,589.264587 247.906784,539.280457 
	C244.528946,517.838318 244.330078,496.273987 246.501190,474.613617 
	C249.818527,441.517731 258.337097,409.879883 272.340942,379.792847 
	C291.915009,337.738312 320.586670,303.177246 357.974030,275.524384 
	C393.099457,249.544510 432.312805,233.604080 474.971222,225.980225 
	C498.261017,221.817902 521.860840,221.323441 545.518738,223.467972 
	C556.144226,224.431168 566.630920,225.817459 577.383423,228.459076 
z"/>
<path fill="#000000" opacity="1.000000" stroke="none" 
	d="
M581.179565,522.717346 
	C591.107117,523.622009 600.435242,522.300781 609.869324,520.617920 
	C608.302063,530.161865 574.045959,556.340820 556.638672,560.275696 
	C532.760986,565.673279 508.731934,568.166260 484.843109,555.845093 
	C487.444031,552.370422 489.016998,549.820801 491.018341,547.669617 
	C502.355469,535.483521 513.877502,523.468323 525.134277,511.209259 
	C527.541565,508.587738 529.449341,509.260345 532.106873,510.373016 
	C547.681824,516.894043 563.960266,520.729065 581.179565,522.717346 
z"/>
<path fill="#000000" opacity="1.000000" stroke="none" 
	d="
M439.832764,541.237183 
	C445.126434,551.157410 445.159912,551.192017 437.253937,558.842712 
	C427.950500,567.845703 418.650360,576.845459 409.962891,586.460083 
	C405.250153,591.675842 403.567261,591.257568 401.543884,584.658386 
	C390.150116,547.498047 400.122559,514.280945 420.339050,482.967804 
	C421.038177,481.884888 421.792114,480.709717 424.210022,480.321716 
	C426.460449,501.246368 431.004700,521.632751 439.832764,541.237183 
z"/>
<path fill="#000000" opacity="1.000000" stroke="none" 
	d="
M303.796631,589.121826 
	C295.662201,572.801758 289.278503,556.235352 286.086334,538.599548 
	C285.114777,533.232056 284.832123,527.679260 290.165161,522.663635 
	C307.308960,561.495667 331.221466,594.595398 365.174835,620.656921 
	C360.967377,624.935242 356.314636,629.626465 351.710114,634.364563 
	C349.273193,636.872070 346.901245,639.443726 344.534637,642.018311 
	C342.199158,644.558960 340.288055,644.400879 338.049866,641.652893 
	C329.195923,630.781799 321.403381,619.173584 314.026611,607.287231 
	C310.429779,601.491577 307.296082,595.408447 303.796631,589.121826 
z"/>
<path fill="#000000" opacity="1.000000" stroke="none" 
	d="
M474.257843,609.606934 
	C460.662018,610.447693 447.445251,611.956116 434.773468,607.693237 
	C434.396912,604.999817 435.911530,604.303833 437.044037,603.451843 
	C449.664948,593.957764 458.680237,580.937988 469.713959,569.888733 
	C472.081604,567.517761 473.693146,566.644958 476.863068,567.772034 
	C483.279663,570.053589 489.878754,571.817017 496.325409,574.020081 
	C508.261749,578.099060 520.537903,579.092529 534.396606,578.282898 
	C518.180359,597.447449 497.634064,605.726440 474.257843,609.606934 
z"/>
<path fill="#000000" opacity="1.000000" stroke="none" 
	d="
M402.160553,325.048523 
	C405.135071,329.302002 404.621765,333.169434 401.957886,336.863586 
	C399.761292,339.909729 396.752319,341.518127 392.936401,340.843414 
	C388.377686,340.037415 385.508667,337.356201 384.810394,332.662292 
	C384.192047,328.505402 386.941772,323.555023 390.957825,321.624359 
	C395.498840,319.441254 398.928955,321.358093 402.160553,325.048523 
z"/>
<path fill="#000000" opacity="1.000000" stroke="none" 
	d="
M346.058594,397.098816 
	C338.340790,395.018280 335.667023,390.782501 338.240448,384.791168 
	C339.934601,380.846893 342.964386,378.199127 347.571930,378.789154 
	C351.889893,379.342041 354.512238,382.344727 354.984497,386.424988 
	C355.462219,390.552216 354.121887,394.365753 349.820709,396.242920 
	C348.773193,396.700073 347.582153,396.828369 346.058594,397.098816 
z"/>
<path fill="#000000" opacity="1.000000" stroke="none" 
	d="
M297.493896,513.732300 
	C293.125183,509.865417 292.559326,504.826477 295.732239,500.826416 
	C298.386353,497.480377 303.305359,496.634674 306.957428,498.896606 
	C310.479187,501.077850 311.571136,506.158600 309.439850,510.447205 
	C306.996521,515.363647 303.729401,516.351074 297.493896,513.732300 
z"/>
</svg>