<svg id="svg" version="1.1" xmlns="http://www.w3.org/2000/svg" xmlns:xlink="http://www.w3.org/1999/xlink" width="400" height="400" viewBox="0, 0, 400,400"><g id="svgg"><path id="path0" d="M193.499 88.635 C 193.369 88.764,192.124 89.030,190.732 89.227 C 189.339 89.423,187.480 89.759,186.600 89.974 C 185.720 90.189,184.460 90.476,183.800 90.612 C 183.140 90.749,182.240 91.018,181.800 91.210 C 181.360 91.402,180.190 91.823,179.200 92.144 C 163.172 97.347,147.872 112.230,141.105 129.200 C 140.886 129.750,140.548 130.513,140.353 130.895 C 140.159 131.277,140.000 131.941,140.000 132.371 C 140.000 132.801,139.820 133.264,139.600 133.400 C 139.380 133.536,139.200 134.166,139.200 134.800 C 139.200 135.434,139.039 136.052,138.842 136.174 C 138.645 136.295,138.384 137.071,138.262 137.897 C 138.140 138.724,137.807 140.660,137.523 142.200 C 137.127 144.350,137.006 153.083,137.003 179.800 C 137.000 212.688,137.095 216.440,138.021 220.100 C 139.314 225.216,140.066 227.684,140.482 228.180 C 140.657 228.389,140.800 228.886,140.800 229.285 C 140.800 229.684,140.962 230.323,141.159 230.705 C 141.357 231.087,142.298 233.020,143.252 235.000 C 157.237 264.040,190.677 278.004,221.811 267.805 C 227.437 265.963,238.613 260.121,239.133 258.751 C 239.207 258.558,239.439 258.400,239.650 258.400 C 239.861 258.400,240.374 258.085,240.790 257.700 C 241.206 257.315,242.503 256.199,243.673 255.219 C 244.843 254.240,247.104 251.990,248.698 250.219 C 253.011 245.428,255.479 241.866,258.689 235.800 C 259.198 234.838,260.764 231.354,261.251 230.100 C 261.443 229.605,261.778 228.795,261.995 228.300 C 262.400 227.377,263.391 223.847,264.045 221.000 C 265.344 215.337,265.400 213.637,265.391 179.800 C 265.383 145.967,265.325 144.247,264.002 138.200 C 263.761 137.100,263.461 135.703,263.336 135.095 C 263.210 134.487,262.949 133.892,262.754 133.771 C 262.559 133.651,262.400 133.124,262.400 132.600 C 262.400 132.076,262.220 131.536,262.000 131.400 C 261.780 131.264,261.600 130.891,261.600 130.572 C 261.600 129.693,258.877 123.748,256.941 120.400 C 250.945 110.031,240.672 100.431,229.947 95.173 C 227.666 94.055,225.487 92.973,225.105 92.770 C 224.723 92.566,224.084 92.400,223.685 92.400 C 223.286 92.400,222.789 92.251,222.580 92.070 C 222.371 91.888,221.390 91.507,220.400 91.223 C 219.410 90.939,218.150 90.567,217.600 90.396 C 216.573 90.077,213.999 89.554,209.833 88.818 C 207.353 88.380,193.904 88.229,193.499 88.635 M206.754 109.630 C 210.261 110.201,214.348 111.219,216.200 111.983 C 227.501 116.647,235.575 124.071,240.361 134.200 C 241.089 135.740,241.845 137.313,242.042 137.695 C 242.239 138.077,242.400 138.741,242.400 139.171 C 242.400 139.601,242.556 140.049,242.746 140.167 C 242.936 140.284,243.204 141.060,243.340 141.890 C 243.476 142.721,243.854 145.020,244.180 147.000 C 244.906 151.419,245.085 206.860,244.388 211.723 C 243.550 217.570,240.325 227.187,238.794 228.400 C 238.655 228.510,238.442 228.870,238.319 229.200 C 237.522 231.353,231.047 238.646,227.666 241.200 C 210.659 254.044,186.663 252.861,171.451 238.429 C 169.348 236.434,164.800 231.123,164.800 230.662 C 164.800 230.563,164.080 229.297,163.200 227.848 C 162.320 226.400,161.600 225.029,161.600 224.802 C 161.600 224.575,161.441 224.077,161.247 223.695 C 160.004 221.252,159.026 218.159,158.307 214.400 C 157.686 211.157,157.401 151.553,157.986 147.400 C 161.356 123.468,184.002 105.930,206.754 109.630 M181.000 169.200 C 180.864 169.420,180.434 169.600,180.044 169.600 C 179.194 169.600,175.200 173.675,175.200 174.543 C 175.200 174.878,175.020 175.264,174.800 175.400 C 174.580 175.536,174.400 176.899,174.400 178.428 C 174.400 189.536,188.799 192.724,193.529 182.662 C 194.453 180.695,194.757 176.268,194.000 175.800 C 193.780 175.664,193.600 175.229,193.600 174.833 C 193.600 171.376,182.674 166.492,181.000 169.200 M213.600 169.664 C 209.853 171.826,208.000 174.905,208.000 178.972 C 208.000 180.391,208.180 181.664,208.400 181.800 C 208.620 181.936,208.800 182.364,208.800 182.752 C 208.800 184.839,213.626 188.321,217.054 188.707 C 226.143 189.732,231.684 178.002,225.087 171.703 C 221.932 168.689,216.852 167.788,213.600 169.664 M283.000 206.923 C 278.277 209.730,277.373 211.807,276.789 221.200 C 276.444 226.740,276.083 229.468,275.225 233.000 C 275.011 233.880,274.724 235.140,274.588 235.800 C 274.451 236.460,274.198 237.360,274.025 237.800 C 273.852 238.240,273.494 239.320,273.229 240.200 C 272.964 241.080,272.579 242.205,272.374 242.700 C 272.168 243.195,271.845 244.005,271.655 244.500 C 263.138 266.686,242.591 284.687,221.400 288.526 C 217.947 289.152,184.146 289.149,181.000 288.522 C 176.907 287.707,176.225 287.550,175.400 287.225 C 174.960 287.052,173.880 286.689,173.000 286.418 C 160.258 282.496,147.083 271.987,138.126 258.600 C 135.185 254.205,130.400 244.914,130.400 243.599 C 130.400 243.374,130.226 242.877,130.013 242.495 C 128.158 239.170,126.214 230.126,125.622 222.067 C 124.926 212.599,123.971 210.453,119.454 208.202 C 117.328 207.143,111.932 206.739,111.400 207.600 C 111.264 207.820,110.895 208.000,110.581 208.000 C 109.551 208.000,106.766 210.524,105.699 212.425 C 103.552 216.247,104.136 229.845,106.824 238.628 C 107.031 239.304,107.200 240.161,107.200 240.534 C 107.200 240.906,107.360 241.523,107.555 241.905 C 107.751 242.287,108.479 244.400,109.173 246.600 C 109.868 248.800,110.608 251.005,110.818 251.500 C 111.028 251.995,111.369 252.805,111.575 253.300 C 114.178 259.539,120.589 271.080,122.811 273.527 C 123.147 273.897,123.858 274.830,124.392 275.600 C 124.925 276.370,125.460 277.090,125.581 277.200 C 125.702 277.310,126.412 278.120,127.158 279.000 C 129.555 281.827,136.180 288.552,138.109 290.119 C 139.138 290.954,140.210 291.860,140.490 292.132 C 140.771 292.404,141.630 293.062,142.400 293.594 C 143.170 294.126,143.890 294.682,144.000 294.829 C 146.100 297.637,164.019 306.141,171.600 307.927 C 172.590 308.160,173.850 308.470,174.400 308.616 C 183.439 311.014,218.961 311.014,228.000 308.616 C 228.550 308.470,229.810 308.160,230.800 307.927 C 238.167 306.191,254.492 298.581,256.791 295.811 C 257.070 295.475,257.546 295.200,257.849 295.200 C 258.152 295.200,258.400 295.059,258.400 294.886 C 258.400 294.714,258.919 294.266,259.554 293.891 C 262.507 292.147,277.194 277.662,277.202 276.486 C 277.203 276.329,277.698 275.652,278.302 274.981 C 278.906 274.311,279.580 273.480,279.800 273.135 C 280.020 272.790,280.905 271.449,281.768 270.154 C 284.889 265.467,288.371 259.056,289.999 255.000 C 290.176 254.560,290.698 253.347,291.160 252.304 C 291.622 251.262,292.000 250.224,292.000 249.999 C 292.000 249.774,292.174 249.277,292.387 248.895 C 293.028 247.745,294.226 243.937,295.248 239.800 C 298.078 228.346,298.777 215.482,296.774 211.729 C 294.588 207.633,286.534 204.822,283.000 206.923 " stroke="none" fill="#fcfbea" fill-rule="evenodd"></path><path id="path1" d="M0.000 200.000 L 0.000 400.000 200.000 400.000 L 400.000 400.000 400.000 200.000 L 400.000 0.000 200.000 0.000 L 0.000 0.000 0.000 200.000 M208.000 88.019 C 213.117 88.564,213.559 88.646,218.900 90.046 C 220.640 90.502,222.063 91.020,223.295 91.647 C 223.677 91.841,224.341 92.000,224.771 92.000 C 225.201 92.000,225.664 92.180,225.800 92.400 C 225.936 92.620,226.397 92.800,226.824 92.800 C 227.251 92.800,227.600 92.980,227.600 93.200 C 227.600 93.420,227.852 93.600,228.159 93.600 C 228.467 93.600,229.772 94.164,231.059 94.853 C 235.997 97.498,235.966 97.477,243.000 102.795 C 246.212 105.223,255.600 115.879,255.600 117.096 C 255.600 117.373,255.735 117.601,255.900 117.603 C 256.065 117.605,256.398 118.010,256.640 118.503 C 257.822 120.911,259.030 123.013,259.300 123.133 C 259.465 123.207,259.600 123.612,259.600 124.033 C 259.600 124.455,259.780 124.800,260.000 124.800 C 260.220 124.800,260.400 125.036,260.400 125.325 C 260.400 125.614,260.741 126.559,261.157 127.425 C 262.673 130.577,264.789 137.782,265.672 142.800 C 266.438 147.154,266.439 213.019,265.673 216.800 C 264.507 222.558,262.931 228.308,262.337 228.980 C 262.151 229.189,262.000 229.589,262.000 229.870 C 262.000 230.373,259.994 235.088,259.156 236.555 C 258.919 236.970,258.377 237.929,257.952 238.686 C 254.205 245.357,247.688 253.085,242.400 257.129 C 241.630 257.718,240.768 258.419,240.485 258.686 C 240.202 258.953,239.437 259.487,238.785 259.872 C 238.133 260.257,237.600 260.714,237.600 260.886 C 237.600 261.059,237.407 261.200,237.172 261.200 C 236.937 261.200,235.992 261.716,235.072 262.347 C 227.146 267.786,215.689 271.183,203.021 271.852 C 192.052 272.431,176.938 268.639,168.600 263.216 C 167.720 262.644,166.521 261.934,165.935 261.639 C 164.041 260.685,157.886 255.566,154.578 252.194 C 148.612 246.114,143.786 238.807,140.711 231.200 C 140.489 230.650,140.148 229.887,139.953 229.505 C 139.759 229.123,139.600 228.536,139.600 228.200 C 139.600 227.864,139.438 227.277,139.239 226.895 C 138.896 226.235,138.445 224.656,137.640 221.300 C 137.443 220.475,137.056 218.990,136.780 218.000 C 136.127 215.650,135.757 152.208,136.361 146.200 C 136.829 141.545,137.695 136.729,138.375 135.000 C 138.548 134.560,138.906 133.480,139.171 132.600 C 139.664 130.962,140.221 129.536,140.847 128.305 C 141.041 127.923,141.200 127.338,141.200 127.005 C 141.200 126.672,141.380 126.400,141.600 126.400 C 141.820 126.400,142.000 126.040,142.000 125.600 C 142.000 125.160,142.180 124.800,142.400 124.800 C 142.620 124.800,142.800 124.548,142.800 124.241 C 142.800 119.129,158.446 101.883,167.661 96.838 C 172.654 94.104,178.041 91.657,181.000 90.777 C 181.880 90.516,182.913 90.144,183.295 89.951 C 183.677 89.758,184.521 89.600,185.171 89.600 C 185.821 89.600,186.450 89.443,186.568 89.252 C 187.254 88.141,201.469 87.324,208.000 88.019 M196.400 110.283 C 194.751 110.369,193.230 110.610,193.020 110.820 C 192.811 111.029,192.194 111.200,191.648 111.200 C 191.103 111.200,190.014 111.405,189.228 111.655 C 176.371 115.755,166.552 124.621,161.603 136.600 C 161.330 137.260,160.948 138.113,160.753 138.495 C 160.559 138.877,160.400 139.541,160.400 139.971 C 160.400 140.401,160.239 140.852,160.042 140.974 C 159.637 141.224,159.366 142.850,158.770 148.600 C 158.191 154.178,158.488 213.757,159.102 215.400 C 159.349 216.060,159.762 217.410,160.021 218.400 C 160.280 219.390,160.651 220.605,160.846 221.100 C 161.041 221.595,161.357 222.405,161.549 222.900 C 162.279 224.780,163.812 227.805,164.100 227.933 C 164.265 228.007,164.400 228.254,164.400 228.483 C 164.400 230.339,172.572 239.124,177.200 242.243 C 189.877 250.786,210.220 251.783,221.600 244.418 C 222.150 244.062,223.095 243.522,223.700 243.218 C 224.305 242.914,224.800 242.515,224.800 242.332 C 224.800 242.150,225.011 242.000,225.269 242.000 C 227.277 242.000,238.800 229.068,238.800 226.815 C 238.800 226.587,238.980 226.400,239.200 226.400 C 239.420 226.400,239.600 226.040,239.600 225.600 C 239.600 225.160,239.780 224.800,240.000 224.800 C 240.220 224.800,240.400 224.438,240.400 223.995 C 240.400 223.552,240.580 222.832,240.800 222.395 C 241.020 221.958,241.380 221.242,241.600 220.805 C 241.820 220.368,242.000 219.659,242.000 219.229 C 242.000 218.799,242.161 218.348,242.358 218.226 C 243.551 217.489,243.961 207.485,243.943 179.600 C 243.924 151.121,243.551 142.111,242.358 141.374 C 242.161 141.252,242.000 140.711,242.000 140.171 C 242.000 139.631,241.838 138.877,241.641 138.495 C 241.443 138.113,240.500 136.180,239.545 134.200 C 238.589 132.220,237.671 130.540,237.504 130.467 C 237.337 130.393,237.200 130.135,237.200 129.892 C 237.200 129.277,233.807 125.006,231.392 122.582 C 228.248 119.427,224.410 116.708,220.132 114.608 C 215.150 112.162,214.690 111.997,209.600 110.842 C 207.458 110.356,200.598 110.066,196.400 110.283 M188.195 168.603 C 189.073 168.916,189.853 169.358,189.929 169.586 C 190.005 169.814,190.292 170.000,190.567 170.000 C 192.393 170.000,194.871 175.066,194.871 178.800 C 194.871 191.709,176.589 193.273,173.826 180.600 C 173.324 178.302,174.078 174.153,175.171 173.200 C 175.297 173.090,175.595 172.648,175.832 172.218 C 177.692 168.854,183.846 167.054,188.195 168.603 M223.258 169.299 C 232.744 174.879,229.092 189.200,218.183 189.200 C 213.585 189.200,210.646 187.461,208.381 183.400 C 207.370 181.586,207.038 175.187,207.940 174.887 C 208.193 174.802,208.400 174.388,208.400 173.967 C 208.400 173.545,208.537 173.200,208.705 173.200 C 208.873 173.200,209.188 172.809,209.405 172.332 C 211.170 168.449,218.926 166.751,223.258 169.299 M291.380 206.450 C 291.589 206.643,292.084 206.800,292.480 206.800 C 292.876 206.800,293.200 206.980,293.200 207.200 C 293.200 207.420,293.433 207.600,293.719 207.600 C 294.375 207.600,296.896 210.276,297.487 211.600 C 299.277 215.607,299.295 220.609,297.563 232.200 C 297.332 233.740,296.984 235.630,296.788 236.400 C 295.424 241.763,295.092 243.127,294.912 244.105 C 294.800 244.713,294.549 245.308,294.354 245.429 C 294.159 245.549,294.000 246.051,294.000 246.544 C 294.000 247.037,293.857 247.611,293.682 247.820 C 293.507 248.029,293.132 248.920,292.848 249.800 C 292.565 250.680,292.098 251.940,291.809 252.600 C 291.521 253.260,290.892 254.700,290.413 255.800 C 287.587 262.288,280.815 273.826,279.536 274.333 C 279.351 274.407,279.199 274.677,279.198 274.933 C 279.197 275.190,278.702 275.940,278.098 276.600 C 277.494 277.260,276.464 278.517,275.809 279.392 C 274.252 281.475,265.851 289.881,263.800 291.408 C 262.921 292.064,261.841 292.934,261.400 293.343 C 257.647 296.826,247.228 302.703,238.800 306.091 C 238.250 306.312,237.487 306.652,237.105 306.847 C 236.723 307.041,236.059 307.200,235.629 307.200 C 235.199 307.200,234.736 307.380,234.600 307.600 C 234.464 307.820,233.834 308.000,233.200 308.000 C 232.566 308.000,231.948 308.161,231.826 308.358 C 231.705 308.555,230.929 308.818,230.103 308.942 C 229.276 309.067,227.880 309.277,227.000 309.409 C 226.120 309.542,225.040 309.804,224.600 309.994 C 222.103 311.068,187.980 311.464,181.200 310.497 C 179.330 310.231,176.990 309.901,176.000 309.765 C 175.010 309.629,174.029 309.356,173.820 309.159 C 173.611 308.962,172.857 308.800,172.144 308.800 C 171.431 308.800,170.736 308.620,170.600 308.400 C 170.464 308.180,169.834 308.000,169.200 308.000 C 168.566 308.000,167.936 307.820,167.800 307.600 C 167.664 307.380,167.201 307.200,166.771 307.200 C 166.341 307.200,165.632 307.020,165.195 306.800 C 164.758 306.580,164.042 306.220,163.605 306.000 C 163.168 305.780,162.633 305.600,162.415 305.600 C 162.198 305.600,160.841 305.060,159.400 304.400 C 157.959 303.740,156.676 303.200,156.550 303.200 C 155.690 303.200,146.160 297.420,144.303 295.773 C 143.700 295.238,143.070 294.799,142.903 294.798 C 142.737 294.797,142.060 294.302,141.400 293.698 C 140.740 293.094,139.480 292.062,138.600 291.404 C 133.599 287.664,125.009 278.143,120.505 271.347 C 117.509 266.827,112.312 257.251,111.199 254.200 C 110.767 253.017,109.956 251.097,109.553 250.305 C 109.359 249.923,109.200 249.259,109.200 248.829 C 109.200 248.399,109.020 247.936,108.800 247.800 C 108.580 247.664,108.400 247.124,108.400 246.600 C 108.400 246.076,108.220 245.536,108.000 245.400 C 107.780 245.264,107.600 244.724,107.600 244.200 C 107.600 243.676,107.420 243.136,107.200 243.000 C 106.980 242.864,106.800 242.144,106.800 241.400 C 106.800 240.656,106.620 239.936,106.400 239.800 C 106.180 239.664,106.000 238.944,106.000 238.200 C 106.000 237.456,105.843 236.750,105.652 236.632 C 105.460 236.514,105.179 235.468,105.027 234.308 C 104.874 233.149,104.578 231.030,104.367 229.600 C 103.442 223.310,103.447 215.748,104.378 213.455 C 105.647 210.328,109.708 206.800,112.038 206.800 C 112.486 206.800,113.196 206.616,113.616 206.392 C 116.113 205.055,123.104 208.833,124.647 212.352 C 124.996 213.148,125.437 214.160,125.626 214.600 C 125.816 215.040,126.058 217.470,126.164 220.000 C 126.271 222.530,126.543 225.770,126.769 227.200 C 126.995 228.630,127.293 230.610,127.431 231.600 C 127.569 232.590,127.844 233.571,128.041 233.780 C 128.238 233.989,128.400 234.666,128.400 235.285 C 128.400 235.904,128.558 236.723,128.751 237.105 C 128.944 237.487,129.316 238.520,129.577 239.400 C 129.839 240.280,130.221 241.405,130.426 241.900 C 130.632 242.395,130.962 243.205,131.159 243.700 C 132.686 247.525,136.112 254.531,136.978 255.600 C 137.246 255.930,137.945 257.042,138.533 258.072 C 139.120 259.101,139.831 260.181,140.113 260.472 C 140.396 260.762,141.067 261.630,141.606 262.400 C 144.338 266.304,151.696 273.662,155.600 276.394 C 156.370 276.933,157.237 277.604,157.526 277.885 C 158.378 278.712,163.489 281.601,166.972 283.224 C 172.684 285.886,176.768 287.114,183.200 288.106 C 186.608 288.631,214.741 288.758,218.600 288.266 C 220.841 287.981,221.613 287.814,225.800 286.713 C 228.160 286.093,232.028 284.811,233.406 284.193 C 234.069 283.895,235.093 283.469,235.682 283.245 C 236.270 283.021,237.890 282.155,239.281 281.319 C 240.672 280.484,242.299 279.546,242.898 279.236 C 243.497 278.926,244.305 278.381,244.693 278.025 C 245.082 277.669,246.028 276.935,246.796 276.394 C 249.033 274.816,256.578 267.644,258.406 265.357 C 258.739 264.941,259.639 263.794,260.406 262.810 C 261.172 261.825,262.025 260.777,262.300 260.481 C 262.575 260.185,262.800 259.789,262.800 259.600 C 262.800 259.411,263.031 259.019,263.313 258.729 C 264.209 257.806,267.490 251.933,269.195 248.200 C 271.515 243.118,271.493 243.170,272.055 241.400 C 272.335 240.520,272.707 239.629,272.882 239.420 C 273.057 239.211,273.200 238.547,273.200 237.944 C 273.200 237.341,273.360 236.748,273.556 236.627 C 273.751 236.506,274.012 235.821,274.134 235.104 C 274.256 234.387,274.558 232.900,274.806 231.800 C 275.488 228.770,275.988 224.734,276.366 219.200 C 276.896 211.432,278.277 208.532,282.406 206.514 C 284.207 205.634,290.445 205.589,291.380 206.450 " stroke="none" fill="#fc7414" fill-rule="evenodd"></path><path id="path2" d="M199.315 87.896 C 200.588 87.976,202.568 87.975,203.715 87.894 C 204.862 87.814,203.820 87.749,201.400 87.750 C 198.980 87.751,198.042 87.816,199.315 87.896 M190.600 88.396 C 190.102 88.608,190.631 88.651,192.000 88.512 C 193.210 88.389,194.275 88.223,194.367 88.144 C 194.711 87.847,191.367 88.070,190.600 88.396 M208.033 88.144 C 208.125 88.223,209.100 88.391,210.200 88.518 C 211.487 88.667,211.915 88.626,211.400 88.403 C 210.636 88.072,207.686 87.845,208.033 88.144 M186.645 89.128 C 186.533 89.308,186.973 89.377,187.621 89.282 C 188.270 89.187,188.800 89.040,188.800 88.955 C 188.800 88.650,186.843 88.807,186.645 89.128 M213.233 88.943 C 213.325 89.021,214.030 89.201,214.800 89.342 C 215.785 89.523,216.022 89.482,215.600 89.206 C 215.058 88.850,212.837 88.603,213.233 88.943 M183.400 90.000 C 183.108 90.473,183.499 90.473,184.600 90.000 C 185.371 89.669,185.369 89.655,184.524 89.628 C 184.042 89.613,183.536 89.780,183.400 90.000 M216.833 89.744 C 216.925 89.823,217.540 90.008,218.200 90.156 C 219.076 90.352,219.238 90.315,218.800 90.018 C 218.260 89.653,216.432 89.398,216.833 89.744 M234.620 97.132 C 235.495 97.896,240.070 100.836,239.863 100.502 C 239.586 100.054,234.879 96.800,234.507 96.800 C 234.360 96.800,234.411 96.949,234.620 97.132 M162.400 100.449 C 161.006 101.671,161.005 101.672,162.288 100.819 C 162.996 100.348,163.682 99.791,163.812 99.581 C 164.197 98.957,163.877 99.154,162.400 100.449 M155.869 106.100 L 151.741 110.200 155.571 106.617 C 157.677 104.646,159.664 102.801,159.986 102.517 C 160.308 102.233,160.442 102.000,160.285 102.000 C 160.127 102.000,158.140 103.845,155.869 106.100 M243.000 103.062 C 245.611 105.619,248.396 107.960,246.800 106.256 C 245.810 105.200,244.460 103.960,243.800 103.503 C 243.140 103.045,242.780 102.847,243.000 103.062 M196.600 109.964 C 195.720 110.102,197.880 110.217,201.400 110.219 C 205.671 110.222,207.002 110.134,205.400 109.955 C 202.454 109.626,198.734 109.630,196.600 109.964 M251.355 111.719 C 252.203 112.753,252.980 113.600,253.082 113.600 C 253.355 113.600,250.821 110.460,250.277 110.124 C 250.022 109.966,250.507 110.684,251.355 111.719 M191.600 110.800 L 190.600 111.120 191.676 111.160 C 192.268 111.182,192.864 111.020,193.000 110.800 C 193.281 110.345,193.020 110.345,191.600 110.800 M209.400 110.800 C 209.840 110.989,210.560 111.138,211.000 111.132 C 211.643 111.123,211.604 111.057,210.800 110.800 C 209.432 110.362,208.381 110.362,209.400 110.800 M149.144 113.500 C 147.993 114.889,147.506 115.600,147.704 115.600 C 147.814 115.600,148.386 114.970,148.973 114.200 C 150.063 112.771,150.195 112.232,149.144 113.500 M182.500 113.983 C 181.125 114.634,180.000 115.256,180.000 115.366 C 180.000 115.579,184.710 113.423,185.102 113.031 C 185.527 112.606,185.017 112.793,182.500 113.983 M217.208 112.933 C 217.314 113.034,219.020 113.960,221.000 114.991 C 222.980 116.022,224.957 117.166,225.393 117.533 C 226.140 118.161,226.155 118.159,225.646 117.502 C 225.078 116.769,220.250 113.978,218.208 113.203 C 217.553 112.954,217.103 112.833,217.208 112.933 M253.484 114.400 C 254.324 115.753,255.600 117.283,255.600 116.939 C 255.600 116.736,255.040 115.947,254.356 115.185 C 253.671 114.423,253.279 114.070,253.484 114.400 M176.800 117.200 C 175.810 117.858,175.139 118.397,175.309 118.398 C 175.657 118.400,178.800 116.374,178.800 116.147 C 178.800 115.892,178.642 115.975,176.800 117.200 M226.400 118.125 C 226.400 118.224,227.061 118.809,227.868 119.425 C 228.676 120.041,229.211 120.341,229.056 120.091 C 228.740 119.579,226.400 117.847,226.400 118.125 M145.014 119.435 C 144.641 120.004,144.427 120.561,144.539 120.672 C 144.650 120.783,145.029 120.318,145.381 119.637 C 146.159 118.133,145.944 118.015,145.014 119.435 M170.477 122.522 C 169.334 123.679,168.400 124.755,168.400 124.913 C 168.400 125.071,169.401 124.191,170.624 122.958 C 171.848 121.725,172.782 120.649,172.701 120.568 C 172.620 120.486,171.619 121.366,170.477 122.522 M234.800 126.400 C 235.497 127.280,236.157 128.000,236.267 128.000 C 236.377 128.000,235.897 127.280,235.200 126.400 C 234.503 125.520,233.843 124.800,233.733 124.800 C 233.623 124.800,234.103 125.520,234.800 126.400 M166.673 126.900 C 165.475 128.511,164.111 130.742,164.656 130.200 C 165.287 129.573,168.019 125.600,167.820 125.600 C 167.721 125.600,167.205 126.185,166.673 126.900 M163.400 132.000 C 163.059 132.660,162.869 133.200,162.979 133.200 C 163.089 133.200,163.459 132.660,163.800 132.000 C 164.141 131.340,164.331 130.800,164.221 130.800 C 164.111 130.800,163.741 131.340,163.400 132.000 M138.267 135.067 C 138.120 135.213,138.011 135.708,138.025 136.167 C 138.049 136.933,138.082 136.923,138.434 136.042 C 138.826 135.063,138.744 134.589,138.267 135.067 M263.858 136.000 C 264.175 137.725,264.402 138.051,264.394 136.767 C 264.391 136.235,264.211 135.530,263.994 135.200 C 263.718 134.778,263.677 135.015,263.858 136.000 M137.449 138.215 C 137.312 138.573,137.221 139.346,137.246 139.933 C 137.280 140.732,137.370 140.598,137.604 139.400 C 137.935 137.700,137.862 137.140,137.449 138.215 M264.668 139.400 C 264.971 141.377,265.202 141.714,265.194 140.167 C 265.191 139.525,265.016 138.730,264.805 138.400 C 264.545 137.991,264.501 138.310,264.668 139.400 M136.649 142.215 C 136.512 142.573,136.426 143.706,136.459 144.733 C 136.516 146.560,136.523 146.549,136.790 144.200 C 137.080 141.637,137.048 141.177,136.649 142.215 M159.246 142.867 C 159.221 143.234,159.096 143.864,158.970 144.267 C 158.752 144.962,158.763 144.963,159.197 144.287 C 159.448 143.896,159.573 143.266,159.473 142.887 C 159.311 142.268,159.288 142.266,159.246 142.867 M242.806 143.433 C 242.809 143.855,242.995 144.470,243.218 144.800 C 243.515 145.238,243.552 145.076,243.356 144.200 C 243.027 142.729,242.798 142.410,242.806 143.433 M265.724 145.800 C 265.726 147.120,265.801 147.612,265.890 146.893 C 265.979 146.174,265.977 145.094,265.886 144.493 C 265.795 143.892,265.722 144.480,265.724 145.800 M158.257 148.859 C 157.920 152.080,157.991 208.403,158.335 211.000 C 158.481 212.100,158.600 198.015,158.600 179.700 C 158.600 161.385,158.581 146.400,158.557 146.400 C 158.533 146.400,158.398 147.506,158.257 148.859 M136.191 179.600 C 136.191 197.310,136.240 204.555,136.300 195.700 C 136.360 186.845,136.360 172.355,136.300 163.500 C 136.240 154.645,136.191 161.890,136.191 179.600 M243.800 179.800 C 243.800 197.620,243.922 211.390,244.070 210.400 C 244.419 208.076,244.414 152.038,244.065 149.400 C 243.919 148.300,243.800 161.980,243.800 179.800 M266.190 179.800 C 266.191 197.180,266.240 204.232,266.300 195.470 C 266.360 186.709,266.360 172.489,266.300 163.870 C 266.240 155.252,266.190 162.420,266.190 179.800 M179.500 169.029 C 178.895 169.357,178.400 169.714,178.400 169.823 C 178.400 169.932,178.895 169.771,179.500 169.465 C 180.105 169.160,180.870 168.809,181.200 168.686 C 181.733 168.488,181.733 168.461,181.200 168.448 C 180.870 168.439,180.105 168.701,179.500 169.029 M188.346 169.016 C 189.086 169.337,189.806 169.594,189.946 169.586 C 190.466 169.557,188.176 168.428,187.600 168.430 C 187.270 168.431,187.606 168.694,188.346 169.016 M213.100 169.029 C 212.495 169.357,212.000 169.714,212.000 169.823 C 212.000 169.932,212.495 169.771,213.100 169.465 C 213.705 169.160,214.470 168.809,214.800 168.686 C 215.333 168.488,215.333 168.461,214.800 168.448 C 214.470 168.439,213.705 168.701,213.100 169.029 M222.847 169.517 C 224.075 170.158,225.542 171.364,226.293 172.348 C 227.012 173.291,227.600 173.930,227.600 173.769 C 227.600 172.515,222.753 168.400,221.276 168.400 C 220.964 168.400,221.671 168.903,222.847 169.517 M176.575 171.300 L 175.400 172.600 176.700 171.425 C 177.415 170.779,178.000 170.194,178.000 170.125 C 178.000 169.816,177.670 170.088,176.575 171.300 M210.175 171.300 L 209.000 172.600 210.300 171.425 C 211.015 170.779,211.600 170.194,211.600 170.125 C 211.600 169.816,211.270 170.088,210.175 171.300 M173.525 177.700 C 173.432 178.195,173.483 179.050,173.638 179.600 C 173.855 180.367,173.930 180.158,173.960 178.700 C 174.003 176.677,173.802 176.217,173.525 177.700 M228.501 178.600 C 228.505 179.480,228.587 179.793,228.683 179.295 C 228.779 178.798,228.775 178.078,228.675 177.695 C 228.575 177.313,228.496 177.720,228.501 178.600 M192.690 184.864 C 192.079 185.730,190.947 186.812,190.173 187.269 C 189.399 187.726,188.859 188.192,188.972 188.305 C 189.294 188.627,191.861 186.529,193.044 184.978 C 193.631 184.208,194.041 183.513,193.956 183.433 C 193.870 183.354,193.300 183.997,192.690 184.864 M225.178 186.300 L 223.800 187.800 225.300 186.422 C 226.696 185.138,226.984 184.800,226.678 184.800 C 226.612 184.800,225.937 185.475,225.178 186.300 M187.000 188.800 C 186.229 189.131,186.231 189.145,187.076 189.172 C 187.558 189.187,188.064 189.020,188.200 188.800 C 188.492 188.327,188.101 188.327,187.000 188.800 M113.600 206.400 C 113.172 206.677,113.572 206.778,115.000 206.754 C 116.596 206.727,116.798 206.656,116.000 206.400 C 114.612 205.956,114.288 205.956,113.600 206.400 M289.233 206.144 C 289.705 206.550,291.643 206.793,291.410 206.416 C 291.268 206.187,290.683 206.000,290.110 206.000 C 289.536 206.000,289.142 206.065,289.233 206.144 M295.422 209.225 C 296.290 210.229,297.081 210.988,297.180 210.912 C 297.280 210.835,296.570 210.014,295.603 209.086 L 293.844 207.400 295.422 209.225 M106.728 209.900 C 105.222 211.476,104.200 213.133,104.531 213.464 C 104.639 213.572,104.854 213.261,105.009 212.772 C 105.164 212.283,106.013 211.100,106.896 210.142 C 108.859 208.013,108.722 207.815,106.728 209.900 M122.636 210.062 C 123.496 211.086,124.281 211.845,124.380 211.748 C 124.480 211.652,123.776 210.814,122.816 209.886 L 121.072 208.200 122.636 210.062 M265.720 214.000 C 265.720 215.210,265.795 215.705,265.887 215.100 C 265.978 214.495,265.978 213.505,265.887 212.900 C 265.795 212.295,265.720 212.790,265.720 214.000 M136.428 214.833 C 136.444 215.805,136.606 216.960,136.790 217.400 C 136.992 217.883,137.038 217.249,136.907 215.800 C 136.645 212.910,136.389 212.393,136.428 214.833 M276.649 214.215 C 276.512 214.573,276.415 215.166,276.434 215.533 C 276.453 215.900,276.627 215.669,276.821 215.020 C 277.198 213.758,277.065 213.133,276.649 214.215 M103.843 214.633 C 103.531 215.445,103.615 225.026,103.947 226.583 C 104.086 227.233,104.200 224.669,104.200 220.884 C 104.200 217.099,104.174 214.001,104.143 214.001 C 104.111 214.000,103.976 214.285,103.843 214.633 M243.000 215.200 C 242.848 215.891,242.807 216.541,242.909 216.642 C 243.011 216.744,243.209 216.253,243.350 215.550 C 243.491 214.847,243.531 214.198,243.441 214.108 C 243.350 214.017,243.152 214.509,243.000 215.200 M125.492 216.513 C 125.738 219.507,125.932 219.755,125.968 217.124 C 125.986 215.872,125.847 214.753,125.660 214.637 C 125.473 214.522,125.397 215.366,125.492 216.513 M159.044 215.800 C 159.373 217.271,159.602 217.590,159.594 216.567 C 159.591 216.145,159.405 215.530,159.182 215.200 C 158.885 214.762,158.848 214.924,159.044 215.800 M298.554 219.600 C 298.554 222.350,298.618 223.475,298.696 222.100 C 298.774 220.725,298.774 218.475,298.696 217.100 C 298.618 215.725,298.554 216.850,298.554 219.600 M264.893 219.200 C 264.893 219.970,264.975 220.285,265.076 219.900 C 265.176 219.515,265.176 218.885,265.076 218.500 C 264.975 218.115,264.893 218.430,264.893 219.200 M137.206 219.633 C 137.209 220.165,137.389 220.870,137.606 221.200 C 137.882 221.622,137.923 221.385,137.742 220.400 C 137.425 218.675,137.198 218.349,137.206 219.633 M275.876 224.410 C 275.730 224.955,275.628 225.940,275.649 226.600 C 275.680 227.557,275.759 227.436,276.042 226.000 C 276.429 224.033,276.302 222.817,275.876 224.410 M126.075 224.600 C 126.086 225.040,126.232 225.940,126.400 226.600 L 126.705 227.800 126.725 226.600 C 126.735 225.940,126.589 225.040,126.400 224.600 L 126.056 223.800 126.075 224.600 M236.655 230.400 C 235.631 231.940,234.878 233.200,234.982 233.200 C 235.085 233.200,235.866 232.165,236.715 230.900 C 238.598 228.099,238.895 227.600,238.682 227.600 C 238.592 227.600,237.680 228.860,236.655 230.400 M297.709 229.600 C 297.709 230.590,297.787 230.995,297.882 230.500 C 297.978 230.005,297.978 229.195,297.882 228.700 C 297.787 228.205,297.709 228.610,297.709 229.600 M104.428 230.233 C 104.444 231.095,104.609 232.160,104.796 232.600 C 105.008 233.098,105.051 232.569,104.912 231.200 C 104.644 228.565,104.389 228.057,104.428 230.233 M165.043 230.327 C 165.459 231.057,166.148 231.957,166.574 232.327 C 167.024 232.718,166.866 232.331,166.196 231.400 C 164.593 229.174,164.150 228.761,165.043 230.327 M126.846 230.000 C 126.865 230.330,127.024 231.050,127.200 231.600 L 127.520 232.600 127.554 231.600 C 127.573 231.050,127.413 230.330,127.200 230.000 C 126.855 229.467,126.816 229.467,126.846 230.000 M275.049 230.215 C 274.912 230.573,274.815 231.166,274.834 231.533 C 274.853 231.900,275.027 231.669,275.221 231.020 C 275.598 229.758,275.465 229.133,275.049 230.215 M168.744 235.041 C 170.316 237.007,174.437 240.800,175.002 240.800 C 175.152 240.800,174.494 240.162,173.538 239.383 C 172.582 238.604,170.745 236.849,169.456 235.483 C 167.316 233.217,167.254 233.178,168.744 235.041 M274.249 233.815 C 274.112 234.173,274.015 234.766,274.034 235.133 C 274.053 235.500,274.227 235.269,274.421 234.620 C 274.798 233.358,274.665 232.733,274.249 233.815 M296.864 234.267 C 296.829 234.964,296.696 235.864,296.570 236.267 C 296.353 236.959,296.365 236.960,296.794 236.291 C 297.045 235.902,297.177 235.002,297.089 234.291 L 296.928 233.000 296.864 234.267 M127.628 233.876 C 127.718 234.915,128.344 235.796,128.372 234.924 C 128.387 234.442,128.220 233.936,128.000 233.800 C 127.780 233.664,127.613 233.698,127.628 233.876 M233.568 234.700 C 231.209 237.343,230.674 238.000,230.882 238.000 C 231.003 238.000,231.949 237.010,232.982 235.800 C 234.896 233.560,235.355 232.698,233.568 234.700 M105.200 235.176 C 105.200 235.823,105.342 236.441,105.516 236.548 C 105.690 236.656,105.761 236.127,105.673 235.372 C 105.476 233.691,105.200 233.577,105.200 235.176 M258.586 236.900 L 257.952 238.200 258.767 237.200 C 259.552 236.237,259.808 235.600,259.410 235.600 C 259.306 235.600,258.935 236.185,258.586 236.900 M273.467 236.667 C 273.320 236.813,273.211 237.308,273.225 237.767 C 273.249 238.533,273.282 238.523,273.634 237.642 C 274.026 236.663,273.944 236.189,273.467 236.667 M295.850 238.850 C 295.709 239.553,295.669 240.202,295.759 240.292 C 295.850 240.383,296.048 239.891,296.200 239.200 C 296.352 238.509,296.393 237.859,296.291 237.758 C 296.189 237.656,295.991 238.147,295.850 238.850 M228.975 239.300 L 227.800 240.600 229.100 239.425 C 229.815 238.779,230.400 238.194,230.400 238.125 C 230.400 237.816,230.070 238.088,228.975 239.300 M295.246 241.267 C 295.221 241.634,295.096 242.264,294.970 242.667 C 294.752 243.362,294.763 243.363,295.197 242.687 C 295.448 242.296,295.573 241.666,295.473 241.287 C 295.311 240.668,295.288 240.666,295.246 241.267 M106.828 241.876 C 106.813 242.358,106.980 242.864,107.200 243.000 C 107.673 243.292,107.673 242.901,107.200 241.800 C 106.869 241.029,106.855 241.031,106.828 241.876 M147.186 243.380 C 148.889 245.854,149.431 246.053,147.875 243.632 C 147.174 242.540,146.456 241.636,146.281 241.623 C 146.105 241.610,146.513 242.401,147.186 243.380 M270.623 245.006 C 269.760 247.072,269.874 247.306,270.847 245.462 C 271.293 244.616,271.565 243.832,271.452 243.719 C 271.339 243.606,270.966 244.185,270.623 245.006 M132.025 246.677 C 132.728 248.544,134.480 252.002,134.833 252.220 C 135.015 252.333,134.546 251.204,133.790 249.713 C 133.034 248.221,132.412 246.786,132.407 246.524 C 132.403 246.262,132.221 245.936,132.001 245.801 C 131.748 245.644,131.757 245.965,132.025 246.677 M150.396 247.594 C 151.090 248.471,151.867 249.318,152.123 249.476 C 152.378 249.634,151.893 248.916,151.045 247.881 C 150.197 246.847,149.420 246.000,149.318 246.000 C 149.216 246.000,149.701 246.718,150.396 247.594 M250.949 248.284 C 249.877 249.540,249.209 250.439,249.464 250.283 C 250.023 249.939,253.354 246.000,253.086 246.000 C 252.982 246.000,252.020 247.028,250.949 248.284 M191.800 248.790 C 192.564 249.128,195.114 249.357,194.767 249.056 C 194.675 248.976,193.790 248.804,192.800 248.673 C 191.598 248.514,191.266 248.553,191.800 248.790 M196.305 249.483 C 196.802 249.579,197.522 249.575,197.905 249.475 C 198.287 249.375,197.880 249.296,197.000 249.301 C 196.120 249.305,195.807 249.387,196.305 249.483 M201.600 249.600 L 199.000 249.862 201.200 249.908 C 202.410 249.933,204.120 249.805,205.000 249.623 C 206.984 249.213,205.542 249.203,201.600 249.600 M154.383 252.100 C 156.041 253.866,156.400 254.184,156.400 253.883 C 156.400 253.819,155.545 252.964,154.500 251.983 L 152.600 250.200 154.383 252.100 M266.253 254.100 L 265.533 255.400 266.358 254.400 C 267.089 253.513,267.414 252.800,267.086 252.800 C 267.024 252.800,266.649 253.385,266.253 254.100 M243.774 255.707 L 242.200 257.399 243.796 255.999 C 244.673 255.230,245.468 254.555,245.562 254.500 C 245.656 254.445,245.647 254.313,245.541 254.207 C 245.435 254.101,244.640 254.776,243.774 255.707 M136.000 254.555 C 136.000 254.885,138.050 258.000,138.267 258.000 C 138.508 258.000,137.583 256.332,136.740 255.246 C 136.333 254.721,136.000 254.410,136.000 254.555 M157.622 255.100 C 157.634 255.265,158.219 255.838,158.922 256.374 L 160.200 257.349 159.025 256.074 C 157.803 254.749,157.585 254.597,157.622 255.100 M264.600 256.800 C 264.259 257.460,264.069 258.000,264.179 258.000 C 264.289 258.000,264.659 257.460,265.000 256.800 C 265.341 256.140,265.531 255.600,265.421 255.600 C 265.311 255.600,264.941 256.140,264.600 256.800 M262.873 259.400 C 262.622 259.950,262.483 260.400,262.563 260.400 C 262.643 260.400,263.003 259.950,263.363 259.400 C 263.724 258.850,263.863 258.400,263.673 258.400 C 263.484 258.400,263.123 258.850,262.873 259.400 M162.560 259.135 C 162.904 259.691,166.406 262.132,166.584 261.939 C 166.654 261.862,165.714 261.098,164.495 260.240 C 163.276 259.382,162.405 258.885,162.560 259.135 M286.200 263.600 C 285.643 264.700,285.277 265.600,285.387 265.600 C 285.497 265.600,286.043 264.700,286.600 263.600 C 287.157 262.500,287.523 261.600,287.413 261.600 C 287.303 261.600,286.757 262.500,286.200 263.600 M232.200 263.623 C 230.660 264.481,228.230 265.670,226.800 266.264 C 223.651 267.572,222.550 268.390,225.487 267.239 C 228.079 266.224,233.527 263.478,234.600 262.646 C 235.842 261.683,235.239 261.928,232.200 263.623 M169.200 263.564 C 169.750 264.014,170.380 264.383,170.600 264.385 C 171.028 264.388,170.305 263.834,169.000 263.160 C 168.469 262.885,168.536 263.021,169.200 263.564 M142.800 264.264 C 142.800 264.482,143.295 265.097,143.900 265.630 L 145.000 266.600 144.000 265.400 C 143.450 264.740,142.955 264.125,142.900 264.033 C 142.845 263.942,142.800 264.045,142.800 264.264 M116.749 265.400 C 116.965 265.840,117.434 266.560,117.793 267.000 L 118.444 267.800 118.051 267.000 C 117.835 266.560,117.366 265.840,117.007 265.400 L 116.356 264.600 116.749 265.400 M147.800 270.000 C 149.550 271.760,151.063 273.200,151.163 273.200 C 151.505 273.200,145.401 266.901,145.009 266.851 C 144.795 266.823,146.050 268.240,147.800 270.000 M282.831 269.273 C 282.122 270.413,281.787 271.143,282.085 270.896 C 282.653 270.424,284.573 267.200,284.285 267.200 C 284.194 267.200,283.540 268.133,282.831 269.273 M253.662 270.258 C 252.706 271.248,251.997 272.130,252.086 272.219 C 252.175 272.309,253.131 271.486,254.209 270.391 C 255.288 269.296,255.997 268.413,255.785 268.429 C 255.573 268.445,254.618 269.268,253.662 270.258 M185.400 270.000 C 185.840 270.189,186.470 270.344,186.800 270.344 C 187.178 270.344,187.104 270.217,186.600 270.000 C 186.160 269.811,185.530 269.656,185.200 269.656 C 184.822 269.656,184.896 269.783,185.400 270.000 M189.400 270.800 C 189.840 270.989,190.470 271.144,190.800 271.144 C 191.178 271.144,191.104 271.017,190.600 270.800 C 190.160 270.611,189.530 270.456,189.200 270.456 C 188.822 270.456,188.896 270.583,189.400 270.800 M211.800 270.800 L 211.000 271.144 211.800 271.166 C 212.240 271.178,212.870 271.013,213.200 270.800 C 213.995 270.286,212.996 270.286,211.800 270.800 M195.020 271.653 C 195.669 271.792,198.450 271.905,201.200 271.905 C 203.950 271.905,206.728 271.792,207.373 271.653 C 208.019 271.514,205.238 271.400,201.194 271.400 C 197.150 271.400,194.372 271.514,195.020 271.653 M280.475 272.784 C 279.994 273.435,279.600 274.100,279.600 274.262 C 279.600 274.423,280.050 273.945,280.600 273.200 C 281.150 272.455,281.600 271.790,281.600 271.722 C 281.600 271.395,281.275 271.702,280.475 272.784 M151.622 273.470 C 151.634 273.651,152.174 274.219,152.822 274.730 C 153.470 275.242,153.990 275.512,153.978 275.330 C 153.966 275.149,153.426 274.581,152.778 274.070 C 152.130 273.558,151.610 273.288,151.622 273.470 M123.191 275.188 C 123.657 275.841,124.242 276.502,124.491 276.656 C 124.741 276.811,124.441 276.276,123.825 275.468 C 122.488 273.715,121.984 273.492,123.191 275.188 M154.569 275.949 C 154.959 276.582,157.201 278.099,157.195 277.727 C 157.192 277.547,156.543 276.981,155.752 276.468 C 154.960 275.955,154.428 275.722,154.569 275.949 M275.008 279.900 C 274.149 280.945,273.860 281.440,274.366 281.000 C 275.261 280.222,276.998 278.000,276.712 278.000 C 276.634 278.000,275.867 278.855,275.008 279.900 M126.400 279.325 C 126.400 279.394,126.985 279.979,127.700 280.625 L 129.000 281.800 127.825 280.500 C 126.730 279.288,126.400 279.016,126.400 279.325 M240.800 280.433 L 239.800 281.248 241.100 280.614 C 241.815 280.265,242.400 279.894,242.400 279.790 C 242.400 279.392,241.763 279.648,240.800 280.433 M132.200 285.600 C 134.171 287.580,135.873 289.200,135.983 289.200 C 136.093 289.200,134.571 287.580,132.600 285.600 C 130.629 283.620,128.927 282.000,128.817 282.000 C 128.707 282.000,130.229 283.620,132.200 285.600 M167.600 283.800 C 167.600 284.220,173.983 286.550,174.291 286.243 C 174.392 286.141,173.873 285.886,173.138 285.676 C 172.402 285.466,170.855 284.916,169.700 284.453 C 168.545 283.990,167.600 283.697,167.600 283.800 M269.261 285.855 C 268.525 286.625,267.996 287.330,268.087 287.420 C 268.178 287.511,268.952 286.869,269.807 285.993 C 270.663 285.117,271.191 284.412,270.981 284.427 C 270.772 284.443,269.997 285.085,269.261 285.855 M225.600 286.818 C 225.162 287.115,225.324 287.152,226.200 286.956 C 227.671 286.627,227.990 286.398,226.967 286.406 C 226.545 286.409,225.930 286.595,225.600 286.818 M178.400 287.600 C 179.942 288.094,180.764 288.094,180.000 287.600 C 179.670 287.387,178.950 287.227,178.400 287.246 L 177.400 287.280 178.400 287.600 M222.400 287.606 C 221.978 287.882,222.215 287.923,223.200 287.742 C 224.925 287.425,225.251 287.198,223.967 287.206 C 223.435 287.209,222.730 287.389,222.400 287.606 M181.633 288.150 C 181.725 288.232,182.880 288.404,184.200 288.531 C 185.755 288.680,186.248 288.642,185.600 288.421 C 184.614 288.084,181.310 287.859,181.633 288.150 M216.800 288.407 C 216.179 288.611,216.709 288.651,218.200 288.512 C 219.520 288.389,220.675 288.224,220.767 288.144 C 221.089 287.865,217.788 288.084,216.800 288.407 M136.422 289.500 C 136.434 289.665,137.019 290.238,137.722 290.774 L 139.000 291.749 137.825 290.474 C 136.603 289.149,136.385 288.997,136.422 289.500 M264.575 290.500 L 263.400 291.800 264.700 290.625 C 265.415 289.979,266.000 289.394,266.000 289.325 C 266.000 289.016,265.670 289.288,264.575 290.500 M259.600 294.449 C 258.206 295.671,258.205 295.672,259.488 294.819 C 260.196 294.348,260.882 293.791,261.012 293.581 C 261.397 292.957,261.077 293.154,259.600 294.449 M144.767 296.145 C 145.300 296.801,146.800 297.793,146.800 297.489 C 146.800 297.413,146.215 296.922,145.500 296.399 C 144.696 295.810,144.416 295.713,144.767 296.145 M147.600 298.102 C 148.313 298.781,152.380 301.094,151.800 300.490 C 151.580 300.261,150.410 299.502,149.200 298.802 C 147.990 298.103,147.270 297.788,147.600 298.102 M252.900 298.846 C 251.537 299.719,251.095 300.306,252.300 299.643 C 253.218 299.139,254.656 298.027,254.400 298.019 C 254.290 298.016,253.615 298.388,252.900 298.846 M249.600 300.836 C 248.936 301.379,248.869 301.515,249.400 301.240 C 250.705 300.566,251.428 300.012,251.000 300.015 C 250.780 300.017,250.150 300.386,249.600 300.836 M154.000 301.796 C 154.000 302.070,156.449 303.284,156.632 303.101 C 156.719 303.014,156.162 302.644,155.395 302.278 C 154.628 301.912,154.000 301.695,154.000 301.796 M170.600 308.400 C 170.736 308.620,171.242 308.787,171.724 308.772 C 172.569 308.745,172.571 308.731,171.800 308.400 C 170.699 307.927,170.308 307.927,170.600 308.400 M230.600 308.400 C 229.829 308.731,229.831 308.745,230.676 308.772 C 231.158 308.787,231.664 308.620,231.800 308.400 C 232.092 307.927,231.701 307.927,230.600 308.400 M173.790 309.184 C 173.932 309.413,174.517 309.600,175.090 309.600 C 176.344 309.600,176.199 309.408,174.666 309.040 C 173.923 308.862,173.621 308.911,173.790 309.184 M227.200 309.200 C 226.376 309.464,226.341 309.526,227.000 309.554 C 227.440 309.573,228.070 309.413,228.400 309.200 C 229.101 308.747,228.614 308.747,227.200 309.200 M177.600 309.988 C 177.930 310.208,178.815 310.391,179.567 310.394 C 181.360 310.402,181.041 310.175,178.800 309.850 C 177.542 309.667,177.181 309.709,177.600 309.988 M222.800 310.000 L 221.400 310.295 222.876 310.347 C 223.688 310.376,224.464 310.220,224.600 310.000 C 224.868 309.566,224.861 309.566,222.800 310.000 M183.823 310.853 C 184.470 310.992,192.290 311.105,201.200 311.105 C 210.110 311.105,217.930 310.992,218.577 310.853 C 219.225 310.714,211.405 310.600,201.200 310.600 C 190.995 310.600,183.175 310.714,183.823 310.853 " stroke="none" fill="#fc9c59" fill-rule="evenodd"></path><path id="path3" d="M198.700 88.296 C 200.075 88.374,202.325 88.374,203.700 88.296 C 205.075 88.218,203.950 88.154,201.200 88.154 C 198.450 88.154,197.325 88.218,198.700 88.296 M190.800 88.800 L 189.400 89.095 190.800 89.119 C 191.570 89.133,192.560 88.989,193.000 88.800 L 193.800 88.456 193.000 88.481 C 192.560 88.494,191.570 88.638,190.800 88.800 M209.400 88.800 C 210.060 88.968,211.050 89.105,211.600 89.105 C 212.492 89.105,212.470 89.072,211.400 88.800 C 210.740 88.632,209.750 88.495,209.200 88.495 C 208.308 88.495,208.330 88.528,209.400 88.800 M186.600 89.600 L 185.800 89.944 186.600 89.944 C 187.040 89.944,187.760 89.789,188.200 89.600 L 189.000 89.256 188.200 89.256 C 187.760 89.256,187.040 89.411,186.600 89.600 M214.200 89.600 C 214.640 89.789,215.360 89.938,215.800 89.932 C 216.443 89.923,216.404 89.857,215.600 89.600 C 214.232 89.162,213.181 89.162,214.200 89.600 M183.400 90.400 L 182.600 90.744 183.400 90.766 C 183.840 90.778,184.470 90.613,184.800 90.400 C 185.595 89.886,184.596 89.886,183.400 90.400 M217.600 90.382 C 217.930 90.605,218.545 90.791,218.967 90.794 C 219.990 90.802,219.671 90.573,218.200 90.244 C 217.324 90.048,217.162 90.085,217.600 90.382 M222.600 92.000 C 222.736 92.220,223.242 92.387,223.724 92.372 C 224.569 92.345,224.571 92.331,223.800 92.000 C 222.699 91.527,222.308 91.527,222.600 92.000 M175.600 93.200 C 174.830 93.622,174.380 93.966,174.600 93.966 C 174.820 93.966,175.630 93.622,176.400 93.200 C 177.170 92.778,177.620 92.434,177.400 92.434 C 177.180 92.434,176.370 92.778,175.600 93.200 M230.000 94.997 C 230.000 95.064,230.765 95.504,231.700 95.975 C 233.267 96.763,233.322 96.768,232.400 96.036 C 231.509 95.329,230.000 94.676,230.000 94.997 M168.925 96.531 C 166.180 98.210,165.660 98.823,168.200 97.385 C 170.815 95.905,171.870 95.193,171.389 95.231 C 171.175 95.247,170.066 95.832,168.925 96.531 M233.633 96.927 C 235.509 98.351,240.428 101.569,240.224 101.239 C 239.905 100.723,234.184 96.800,233.751 96.800 C 233.595 96.800,233.542 96.857,233.633 96.927 M161.985 101.232 L 160.600 102.463 161.888 101.613 C 163.030 100.859,163.893 100.000,163.508 100.000 C 163.432 100.000,162.747 100.554,161.985 101.232 M158.574 104.107 L 157.000 105.799 158.596 104.399 C 159.473 103.630,160.268 102.955,160.362 102.900 C 160.456 102.845,160.447 102.713,160.341 102.607 C 160.235 102.501,159.440 103.176,158.574 104.107 M242.854 103.417 C 242.884 103.628,244.729 105.509,246.954 107.598 C 250.041 110.496,250.054 110.108,246.973 107.027 C 244.756 104.810,242.810 103.104,242.854 103.417 M153.196 109.300 C 151.391 111.335,149.557 113.540,149.121 114.200 L 148.327 115.400 149.398 114.200 C 152.405 110.831,156.823 105.600,156.662 105.600 C 156.561 105.600,155.001 107.265,153.196 109.300 M196.227 109.547 C 195.581 109.686,197.822 109.800,201.205 109.800 C 204.589 109.800,206.827 109.686,206.179 109.547 C 205.530 109.408,203.290 109.295,201.200 109.295 C 199.110 109.295,196.872 109.408,196.227 109.547 M191.600 110.406 C 191.178 110.682,191.415 110.723,192.400 110.542 C 194.125 110.225,194.451 109.998,193.167 110.006 C 192.635 110.009,191.930 110.189,191.600 110.406 M208.433 110.143 C 208.525 110.221,209.230 110.401,210.000 110.542 C 210.985 110.723,211.222 110.682,210.800 110.406 C 210.258 110.050,208.037 109.803,208.433 110.143 M212.600 111.200 C 213.796 111.714,214.795 111.714,214.000 111.200 C 213.670 110.987,213.040 110.822,212.600 110.834 L 211.800 110.856 212.600 111.200 M252.684 114.004 C 253.746 115.436,255.032 117.281,255.540 118.104 C 256.049 118.927,256.551 119.600,256.656 119.600 C 257.067 119.600,253.724 114.706,252.010 112.800 C 251.318 112.030,251.621 112.572,252.684 114.004 M220.800 114.179 C 220.800 114.289,221.340 114.659,222.000 115.000 C 222.660 115.341,223.200 115.531,223.200 115.421 C 223.200 115.311,222.660 114.941,222.000 114.600 C 221.340 114.259,220.800 114.069,220.800 114.179 M177.093 116.614 C 176.272 117.172,175.600 117.715,175.600 117.820 C 175.600 117.925,176.320 117.535,177.200 116.953 C 178.597 116.028,179.070 115.600,178.693 115.600 C 178.634 115.600,177.914 116.056,177.093 116.614 M146.153 118.500 C 144.776 120.836,144.686 121.035,145.387 120.200 C 146.200 119.232,146.900 118.000,146.638 118.000 C 146.533 118.000,146.315 118.225,146.153 118.500 M171.849 120.831 C 170.182 122.388,168.248 124.413,167.552 125.331 C 166.804 126.317,167.214 125.987,168.554 124.523 C 169.802 123.161,171.852 121.139,173.111 120.029 C 174.370 118.919,175.283 118.009,175.141 118.006 C 174.998 118.003,173.517 119.274,171.849 120.831 M230.832 121.603 C 232.939 123.691,235.156 126.030,235.759 126.800 L 236.854 128.200 235.944 126.800 C 234.787 125.018,230.683 120.694,228.600 119.061 C 227.720 118.371,228.724 119.515,230.832 121.603 M256.815 120.200 C 256.817 120.420,257.186 121.050,257.636 121.600 C 258.179 122.264,258.315 122.331,258.040 121.800 C 257.366 120.495,256.812 119.772,256.815 120.200 M143.986 122.301 C 143.145 123.987,143.140 124.000,143.347 124.000 C 143.605 124.000,144.842 121.508,144.669 121.336 C 144.595 121.262,144.288 121.696,143.986 122.301 M164.965 128.611 C 164.373 129.387,163.977 130.111,164.086 130.219 C 164.194 130.328,164.762 129.693,165.347 128.808 C 166.660 126.824,166.422 126.701,164.965 128.611 M262.428 132.676 C 262.413 133.158,262.580 133.664,262.800 133.800 C 263.273 134.092,263.273 133.701,262.800 132.600 C 262.469 131.829,262.455 131.831,262.428 132.676 M138.846 134.667 C 138.821 134.924,138.684 135.464,138.541 135.867 C 138.340 136.436,138.394 136.497,138.779 136.142 C 139.052 135.891,139.189 135.351,139.084 134.942 C 138.979 134.534,138.872 134.410,138.846 134.667 M137.829 138.629 C 137.681 139.215,137.651 139.784,137.761 139.894 C 137.871 140.004,138.081 139.615,138.229 139.029 C 138.376 138.442,138.406 137.873,138.296 137.763 C 138.186 137.653,137.976 138.042,137.829 138.629 M264.034 138.600 C 264.022 139.040,264.187 139.670,264.400 140.000 C 264.914 140.795,264.914 139.796,264.400 138.600 L 264.056 137.800 264.034 138.600 M159.449 140.215 C 159.312 140.573,159.215 141.166,159.234 141.533 C 159.253 141.900,159.427 141.669,159.621 141.020 C 159.998 139.758,159.865 139.133,159.449 140.215 M242.752 141.287 C 242.937 142.398,242.993 142.455,243.119 141.654 C 243.201 141.133,243.103 140.543,242.901 140.341 C 242.679 140.119,242.621 140.493,242.752 141.287 M137.018 143.018 C 136.865 144.039,136.830 144.963,136.940 145.073 C 137.050 145.183,137.265 144.439,137.418 143.418 C 137.571 142.398,137.606 141.473,137.496 141.363 C 137.386 141.253,137.171 141.998,137.018 143.018 M264.887 143.000 C 264.883 143.660,265.024 144.650,265.200 145.200 L 265.520 146.200 265.513 145.200 C 265.509 144.650,265.368 143.660,265.200 143.000 L 264.895 141.800 264.887 143.000 M158.649 143.015 C 158.512 143.373,158.418 144.146,158.440 144.733 C 158.473 145.591,158.552 145.495,158.846 144.240 C 159.222 142.639,159.095 141.853,158.649 143.015 M243.482 144.600 C 243.609 145.700,243.777 146.675,243.856 146.767 C 244.155 147.114,243.928 144.164,243.597 143.400 C 243.374 142.885,243.333 143.313,243.482 144.600 M157.857 147.900 C 157.527 149.894,157.606 210.739,157.940 211.923 C 158.083 212.431,158.200 197.896,158.200 179.623 C 158.200 161.350,158.179 146.400,158.152 146.400 C 158.126 146.400,157.993 147.075,157.857 147.900 M136.591 179.600 C 136.591 197.310,136.640 204.555,136.700 195.700 C 136.760 186.845,136.760 172.355,136.700 163.500 C 136.640 154.645,136.591 161.890,136.591 179.600 M244.494 179.000 C 244.438 195.280,244.311 209.590,244.210 210.800 L 244.026 213.000 244.416 210.859 C 244.652 209.561,244.764 197.051,244.700 179.059 L 244.595 149.400 244.494 179.000 M265.790 179.600 C 265.790 196.210,265.839 203.005,265.900 194.700 C 265.960 186.395,265.960 172.805,265.900 164.500 C 265.839 156.195,265.790 162.990,265.790 179.600 M183.107 168.690 C 183.826 168.779,184.906 168.777,185.507 168.686 C 186.108 168.595,185.520 168.522,184.200 168.524 C 182.880 168.526,182.388 168.601,183.107 168.690 M216.700 168.689 C 217.415 168.778,218.585 168.778,219.300 168.689 C 220.015 168.601,219.430 168.528,218.000 168.528 C 216.570 168.528,215.985 168.601,216.700 168.689 M176.951 171.428 C 175.945 172.434,175.230 173.364,175.361 173.495 C 175.493 173.626,175.645 173.655,175.700 173.559 C 175.755 173.463,176.602 172.533,177.583 171.493 C 179.867 169.068,179.362 169.017,176.951 171.428 M211.360 170.716 C 210.678 171.312,209.799 172.340,209.406 173.000 L 208.693 174.200 209.763 172.916 C 210.351 172.210,211.410 171.177,212.116 170.621 C 212.822 170.064,213.220 169.614,213.000 169.621 C 212.780 169.627,212.042 170.120,211.360 170.716 M223.884 170.621 C 224.590 171.177,225.623 172.210,226.179 172.916 C 226.736 173.622,227.193 174.057,227.196 173.883 C 227.203 173.378,223.537 169.600,223.045 169.604 C 222.800 169.607,223.178 170.064,223.884 170.621 M191.599 171.801 C 192.368 172.680,193.155 173.580,193.348 173.800 C 193.540 174.020,193.511 173.840,193.283 173.400 C 193.055 172.960,192.268 172.060,191.534 171.401 L 190.200 170.202 191.599 171.801 M174.128 178.800 C 174.128 180.230,174.201 180.815,174.289 180.100 C 174.378 179.385,174.378 178.215,174.289 177.500 C 174.201 176.785,174.128 177.370,174.128 178.800 M207.720 178.800 C 207.720 180.010,207.795 180.505,207.887 179.900 C 207.978 179.295,207.978 178.305,207.887 177.700 C 207.795 177.095,207.720 177.590,207.720 178.800 M228.114 178.600 C 228.117 179.700,228.195 180.103,228.287 179.495 C 228.379 178.886,228.377 177.986,228.282 177.495 C 228.187 177.003,228.111 177.500,228.114 178.600 M194.493 178.800 C 194.493 179.570,194.575 179.885,194.676 179.500 C 194.776 179.115,194.776 178.485,194.676 178.100 C 194.575 177.715,194.493 178.030,194.493 178.800 M227.029 182.861 C 226.304 184.315,226.261 184.533,226.761 184.224 C 227.126 183.998,228.084 181.600,227.808 181.600 C 227.726 181.600,227.375 182.168,227.029 182.861 M192.439 184.538 C 191.619 185.864,190.539 186.755,188.400 187.873 C 187.850 188.160,187.629 188.396,187.909 188.398 C 189.261 188.404,194.132 183.998,193.486 183.353 C 193.379 183.246,192.908 183.779,192.439 184.538 M175.576 184.356 C 176.545 186.165,180.932 189.089,182.095 188.702 C 182.327 188.624,181.747 188.331,180.808 188.050 C 179.723 187.725,178.385 186.823,177.142 185.580 C 176.065 184.503,175.360 183.952,175.576 184.356 M210.206 185.552 C 211.124 186.652,213.750 188.400,214.486 188.400 C 214.762 188.400,214.271 188.022,213.394 187.559 C 212.517 187.097,211.263 186.242,210.606 185.659 C 209.561 184.731,209.511 184.718,210.206 185.552 M224.840 185.995 C 224.093 186.635,222.923 187.433,222.240 187.770 C 221.558 188.106,221.229 188.386,221.508 188.391 C 222.188 188.403,224.813 186.713,225.762 185.652 C 226.810 184.480,226.459 184.611,224.840 185.995 M184.400 188.800 L 182.600 189.080 184.200 189.112 C 185.080 189.129,186.160 188.989,186.600 188.800 C 187.527 188.402,186.961 188.402,184.400 188.800 M217.100 189.082 C 217.595 189.178,218.405 189.178,218.900 189.082 C 219.395 188.987,218.990 188.909,218.000 188.909 C 217.010 188.909,216.605 188.987,217.100 189.082 M285.705 206.287 C 286.314 206.379,287.214 206.377,287.705 206.282 C 288.197 206.187,287.700 206.111,286.600 206.114 C 285.500 206.117,285.097 206.195,285.705 206.287 M290.200 206.800 C 290.640 206.989,291.270 207.144,291.600 207.144 C 291.978 207.144,291.904 207.017,291.400 206.800 C 290.960 206.611,290.330 206.456,290.000 206.456 C 289.622 206.456,289.696 206.583,290.200 206.800 M113.500 207.089 C 114.215 207.178,115.385 207.178,116.100 207.089 C 116.815 207.001,116.230 206.928,114.800 206.928 C 113.370 206.928,112.785 207.001,113.500 207.089 M280.411 208.252 C 278.774 209.629,277.332 212.530,277.049 215.012 L 276.822 217.000 277.343 214.800 C 278.048 211.823,279.312 209.485,280.889 208.242 C 281.610 207.674,282.079 207.207,281.931 207.204 C 281.783 207.202,281.099 207.673,280.411 208.252 M293.400 208.163 C 295.104 209.651,296.466 210.416,295.527 209.358 C 295.157 208.941,294.257 208.266,293.527 207.858 L 292.200 207.115 293.400 208.163 M107.888 209.283 C 107.057 209.950,106.176 210.880,105.931 211.348 C 105.675 211.838,106.064 211.594,106.846 210.774 C 107.595 209.990,108.564 209.148,109.000 208.904 C 109.436 208.660,109.705 208.372,109.597 208.264 C 109.489 208.157,108.720 208.615,107.888 209.283 M122.563 210.372 C 123.353 211.347,124.000 212.371,124.000 212.648 C 124.000 212.926,124.163 213.254,124.363 213.377 C 125.277 213.942,124.144 211.824,122.716 210.298 L 121.126 208.600 122.563 210.372 M243.654 214.000 C 243.619 214.550,243.496 215.450,243.383 216.000 L 243.177 217.000 243.607 216.015 C 243.843 215.474,243.965 214.574,243.878 214.015 L 243.720 213.000 243.654 214.000 M265.018 215.418 C 264.865 216.439,264.830 217.363,264.940 217.473 C 265.050 217.583,265.265 216.839,265.418 215.818 C 265.571 214.798,265.606 213.873,265.496 213.763 C 265.386 213.653,265.171 214.398,265.018 215.418 M297.779 220.499 C 297.766 224.880,297.861 226.597,298.040 225.200 C 298.393 222.436,298.406 215.696,298.060 214.499 C 297.917 214.003,297.791 216.703,297.779 220.499 M104.256 214.884 C 104.121 215.388,104.027 216.160,104.046 216.600 C 104.065 217.040,104.245 216.698,104.446 215.840 C 104.836 214.178,104.670 213.340,104.256 214.884 M125.082 216.400 C 125.208 217.830,125.377 219.075,125.456 219.167 C 125.761 219.520,125.526 215.358,125.198 214.600 C 124.984 214.105,124.940 214.790,125.082 216.400 M158.406 215.033 C 158.409 215.675,158.596 216.470,158.821 216.800 C 159.114 217.230,159.154 216.946,158.962 215.800 C 158.630 213.816,158.398 213.496,158.406 215.033 M136.887 215.200 C 136.891 215.750,137.032 216.740,137.200 217.400 L 137.505 218.600 137.513 217.400 C 137.517 216.740,137.376 215.750,137.200 215.200 L 136.880 214.200 136.887 215.200 M242.846 217.667 C 242.821 218.034,242.696 218.664,242.570 219.067 C 242.352 219.762,242.363 219.763,242.797 219.087 C 243.048 218.696,243.173 218.066,243.073 217.687 C 242.911 217.068,242.888 217.066,242.846 217.667 M159.206 218.233 C 159.209 218.655,159.395 219.270,159.618 219.600 C 159.915 220.038,159.952 219.876,159.756 219.000 C 159.427 217.529,159.198 217.210,159.206 218.233 M264.200 220.000 C 264.048 220.691,264.014 221.347,264.124 221.457 C 264.234 221.567,264.448 221.091,264.600 220.400 C 264.752 219.709,264.786 219.053,264.676 218.943 C 264.566 218.833,264.352 219.309,264.200 220.000 M137.844 220.600 C 138.173 222.071,138.402 222.390,138.394 221.367 C 138.391 220.945,138.205 220.330,137.982 220.000 C 137.685 219.562,137.648 219.724,137.844 220.600 M276.479 222.250 C 276.436 223.818,276.311 225.707,276.201 226.450 L 276.003 227.800 276.418 226.478 C 276.647 225.751,276.772 223.861,276.697 222.278 L 276.559 219.400 276.479 222.250 M104.094 221.800 C 104.081 222.900,104.210 224.700,104.382 225.800 C 104.819 228.608,104.847 225.675,104.415 222.200 L 104.118 219.800 104.094 221.800 M125.628 224.033 C 125.644 225.225,125.802 226.560,125.980 227.000 C 126.165 227.458,126.216 226.602,126.099 225.000 C 125.850 221.600,125.590 221.065,125.628 224.033 M263.473 222.953 C 263.323 223.345,263.211 223.966,263.225 224.333 C 263.242 224.775,263.381 224.674,263.637 224.034 C 263.849 223.503,263.961 222.882,263.885 222.654 C 263.809 222.427,263.624 222.561,263.473 222.953 M138.644 223.800 C 138.973 225.271,139.202 225.590,139.194 224.567 C 139.191 224.145,139.005 223.530,138.782 223.200 C 138.485 222.762,138.448 222.924,138.644 223.800 M140.028 228.276 C 140.118 229.315,140.744 230.196,140.772 229.324 C 140.787 228.842,140.620 228.336,140.400 228.200 C 140.180 228.064,140.013 228.098,140.028 228.276 M275.654 229.200 C 275.619 229.750,275.496 230.650,275.383 231.200 L 275.177 232.200 275.607 231.215 C 275.843 230.674,275.965 229.774,275.878 229.215 L 275.720 228.200 275.654 229.200 M297.018 230.618 C 296.865 231.639,296.822 232.555,296.922 232.655 C 297.022 232.755,297.229 232.002,297.382 230.982 C 297.535 229.961,297.578 229.045,297.478 228.945 C 297.378 228.845,297.171 229.598,297.018 230.618 M126.406 230.033 C 126.409 230.565,126.589 231.270,126.806 231.600 C 127.082 232.022,127.123 231.785,126.942 230.800 C 126.625 229.075,126.398 228.749,126.406 230.033 M104.887 230.200 C 104.891 230.640,105.032 231.540,105.200 232.200 C 105.474 233.278,105.506 233.298,105.513 232.400 C 105.517 231.850,105.376 230.950,105.200 230.400 C 104.949 229.616,104.881 229.573,104.887 230.200 M164.800 230.738 C 164.800 230.924,165.188 231.419,165.662 231.838 L 166.524 232.600 165.816 231.500 C 165.086 230.366,164.800 230.151,164.800 230.738 M236.175 231.868 C 235.559 232.676,235.259 233.211,235.509 233.056 C 236.021 232.740,237.753 230.400,237.475 230.400 C 237.376 230.400,236.791 231.061,236.175 231.868 M167.466 234.200 C 169.104 236.287,173.422 240.393,175.200 241.554 C 176.450 242.371,176.429 242.330,175.000 241.172 C 174.120 240.458,171.782 238.238,169.805 236.237 C 167.828 234.237,166.776 233.320,167.466 234.200 M274.846 233.267 C 274.821 233.634,274.696 234.264,274.570 234.667 C 274.352 235.362,274.363 235.363,274.797 234.687 C 275.048 234.296,275.173 233.666,275.073 233.287 C 274.911 232.668,274.888 232.666,274.846 233.267 M127.206 233.833 C 127.209 234.255,127.395 234.870,127.618 235.200 C 127.915 235.638,127.952 235.476,127.756 234.600 C 127.427 233.129,127.198 232.810,127.206 233.833 M105.862 235.800 C 105.996 236.680,106.172 237.475,106.253 237.567 C 106.556 237.910,106.329 235.768,105.981 235.000 C 105.729 234.442,105.693 234.685,105.862 235.800 M296.273 234.953 C 296.123 235.345,296.011 235.966,296.025 236.333 C 296.042 236.775,296.181 236.674,296.437 236.034 C 296.649 235.503,296.761 234.882,296.685 234.654 C 296.609 234.427,296.424 234.561,296.273 234.953 M230.600 238.282 C 229.060 239.737,228.160 240.676,228.600 240.368 C 229.581 239.682,233.878 235.605,233.600 235.623 C 233.490 235.631,232.140 236.827,230.600 238.282 M258.246 236.586 C 257.891 237.128,257.600 237.660,257.600 237.768 C 257.600 237.876,257.044 238.918,256.365 240.082 C 255.686 241.247,255.393 241.930,255.713 241.600 C 256.034 241.270,256.952 239.785,257.755 238.300 C 259.214 235.601,259.464 234.727,258.246 236.586 M274.046 236.267 C 274.021 236.524,273.884 237.064,273.741 237.467 C 273.540 238.036,273.594 238.097,273.979 237.742 C 274.252 237.491,274.389 236.951,274.284 236.542 C 274.179 236.134,274.072 236.010,274.046 236.267 M144.653 238.400 C 146.150 241.553,152.867 250.714,153.727 250.776 C 153.908 250.789,153.161 249.765,152.068 248.500 C 150.420 246.593,148.242 243.509,144.494 237.774 C 144.216 237.348,144.288 237.630,144.653 238.400 M295.473 238.553 C 295.323 238.945,295.211 239.566,295.225 239.933 C 295.242 240.375,295.381 240.274,295.637 239.634 C 295.849 239.103,295.961 238.482,295.885 238.254 C 295.809 238.027,295.624 238.161,295.473 238.553 M106.644 239.400 C 106.973 240.871,107.202 241.190,107.194 240.167 C 107.191 239.745,107.005 239.130,106.782 238.800 C 106.485 238.362,106.448 238.524,106.644 239.400 M225.978 241.954 C 225.196 242.529,224.116 243.323,223.578 243.719 C 222.159 244.761,223.496 244.066,225.600 242.667 C 227.816 241.194,227.770 241.232,227.567 241.054 C 227.475 240.973,226.760 241.378,225.978 241.954 M107.228 241.876 C 107.318 242.915,107.944 243.796,107.972 242.924 C 107.987 242.442,107.820 241.936,107.600 241.800 C 107.380 241.664,107.213 241.698,107.228 241.876 M176.800 242.501 C 176.800 242.755,179.896 244.800,180.280 244.800 C 180.444 244.800,180.223 244.558,179.789 244.261 C 177.881 242.959,176.800 242.322,176.800 242.501 M253.096 244.931 C 252.074 246.323,250.042 248.753,248.581 250.331 C 247.120 251.909,246.053 253.200,246.209 253.200 C 246.757 253.200,252.935 246.041,254.580 243.500 C 255.875 241.500,254.986 242.357,253.096 244.931 M180.800 244.996 C 180.800 245.270,183.249 246.484,183.432 246.301 C 183.519 246.214,182.962 245.844,182.195 245.478 C 181.428 245.112,180.800 244.895,180.800 244.996 M218.600 246.194 C 217.060 246.930,215.918 247.548,216.063 247.567 C 216.475 247.619,221.600 245.259,221.600 245.017 C 221.600 244.738,221.834 244.647,218.600 246.194 M190.000 248.800 C 191.368 249.238,192.419 249.238,191.400 248.800 C 190.960 248.611,190.240 248.462,189.800 248.468 C 189.157 248.477,189.196 248.543,190.000 248.800 M210.800 248.800 C 209.996 249.057,209.957 249.123,210.600 249.132 C 211.040 249.138,211.760 248.989,212.200 248.800 C 213.219 248.362,212.168 248.362,210.800 248.800 M292.267 249.067 C 292.120 249.213,292.000 249.575,292.000 249.871 C 292.000 250.368,290.824 253.275,289.967 254.895 C 289.765 255.277,289.604 255.817,289.609 256.095 C 289.618 256.578,289.854 256.123,291.396 252.651 C 292.096 251.075,292.830 248.800,292.639 248.800 C 292.581 248.800,292.413 248.920,292.267 249.067 M194.000 249.600 C 194.550 249.776,195.540 249.917,196.200 249.913 L 197.400 249.905 196.200 249.600 C 195.540 249.432,194.550 249.291,194.000 249.287 L 193.000 249.280 194.000 249.600 M206.200 249.600 L 204.600 249.886 206.000 249.896 C 206.770 249.901,207.940 249.768,208.600 249.600 C 210.228 249.186,208.513 249.186,206.200 249.600 M154.975 252.359 C 155.097 252.556,156.322 253.665,157.698 254.822 L 160.200 256.926 157.692 254.463 C 155.394 252.207,154.409 251.443,154.975 252.359 M135.390 254.300 C 135.963 255.345,136.805 256.650,137.263 257.200 L 138.095 258.200 137.368 257.000 C 136.968 256.340,136.211 255.035,135.686 254.100 C 135.161 253.165,134.646 252.400,134.541 252.400 C 134.436 252.400,134.818 253.255,135.390 254.300 M111.592 254.178 C 112.354 256.183,113.623 258.800,113.834 258.800 C 113.951 258.800,113.976 258.665,113.890 258.500 C 113.218 257.220,112.000 254.337,112.000 254.028 C 112.000 253.819,111.821 253.536,111.601 253.401 C 111.337 253.238,111.334 253.501,111.592 254.178 M242.896 255.827 C 241.518 257.022,240.528 257.995,240.696 257.989 C 240.863 257.983,242.137 256.993,243.527 255.789 C 244.917 254.585,245.907 253.612,245.727 253.627 C 245.547 253.642,244.273 254.632,242.896 255.827 M266.157 254.900 C 265.792 255.615,264.532 257.603,263.357 259.317 C 262.182 261.032,261.398 262.325,261.616 262.190 C 262.498 261.645,267.560 253.600,267.021 253.600 C 266.911 253.600,266.522 254.185,266.157 254.900 M288.552 258.300 C 288.174 259.125,287.795 259.935,287.709 260.100 C 287.623 260.265,287.645 260.400,287.758 260.400 C 287.870 260.400,288.271 259.725,288.648 258.900 C 289.026 258.075,289.405 257.265,289.491 257.100 C 289.577 256.935,289.555 256.800,289.442 256.800 C 289.330 256.800,288.929 257.475,288.552 258.300 M139.239 260.200 C 144.107 267.697,154.673 277.546,162.400 281.788 C 163.813 282.564,162.002 281.178,159.000 279.186 C 152.399 274.806,145.568 268.383,141.341 262.581 C 138.682 258.931,137.672 257.787,139.239 260.200 M163.294 259.290 C 164.482 260.300,166.800 261.747,166.800 261.479 C 166.800 261.388,165.765 260.649,164.500 259.837 C 163.235 259.025,162.692 258.779,163.294 259.290 M286.653 262.100 L 285.933 263.400 286.758 262.400 C 287.489 261.513,287.814 260.800,287.486 260.800 C 287.424 260.800,287.049 261.385,286.653 262.100 M233.900 262.229 C 233.295 262.557,232.800 262.910,232.800 263.013 C 232.800 263.399,233.432 263.157,234.400 262.400 C 235.589 261.470,235.411 261.409,233.900 262.229 M168.800 262.820 C 170.187 263.761,170.978 264.035,170.000 263.236 C 169.450 262.786,168.820 262.417,168.600 262.415 C 168.380 262.413,168.470 262.596,168.800 262.820 M259.408 264.700 C 258.549 265.745,258.260 266.240,258.766 265.800 C 259.661 265.022,261.398 262.800,261.112 262.800 C 261.034 262.800,260.267 263.655,259.408 264.700 M284.295 266.112 C 283.491 267.480,282.446 269.230,281.973 270.000 C 281.172 271.305,281.169 271.332,281.935 270.400 C 283.019 269.081,286.086 263.953,285.901 263.768 C 285.822 263.689,285.099 264.743,284.295 266.112 M117.200 265.329 C 117.200 265.694,119.245 268.800,119.486 268.800 C 119.679 268.800,118.092 266.048,117.536 265.420 C 117.351 265.211,117.200 265.170,117.200 265.329 M254.391 270.300 L 251.000 273.800 254.500 270.409 C 257.751 267.259,258.182 266.800,257.891 266.800 C 257.831 266.800,256.256 268.375,254.391 270.300 M220.000 268.400 C 219.176 268.664,219.141 268.726,219.800 268.754 C 220.240 268.773,220.870 268.613,221.200 268.400 C 221.901 267.947,221.414 267.947,220.000 268.400 M217.200 269.200 C 216.376 269.464,216.341 269.526,217.000 269.554 C 217.440 269.573,218.070 269.413,218.400 269.200 C 219.101 268.747,218.614 268.747,217.200 269.200 M187.000 269.990 C 187.764 270.328,190.314 270.557,189.967 270.256 C 189.875 270.176,188.990 270.004,188.000 269.873 C 186.798 269.714,186.466 269.753,187.000 269.990 M213.600 270.000 C 212.233 270.288,212.228 270.295,213.400 270.319 C 214.060 270.333,214.960 270.189,215.400 270.000 C 216.362 269.587,215.564 269.587,213.600 270.000 M191.200 270.812 C 192.195 271.119,197.084 271.332,196.767 271.055 C 196.675 270.975,195.160 270.818,193.400 270.707 C 191.640 270.595,190.650 270.643,191.200 270.812 M206.900 271.087 C 207.505 271.178,208.495 271.178,209.100 271.087 C 209.705 270.995,209.210 270.920,208.000 270.920 C 206.790 270.920,206.295 270.995,206.900 271.087 M199.300 271.494 C 200.345 271.576,202.055 271.576,203.100 271.494 C 204.145 271.412,203.290 271.344,201.200 271.344 C 199.110 271.344,198.255 271.412,199.300 271.494 M280.198 272.402 C 279.798 272.844,279.566 273.299,279.682 273.415 C 279.797 273.530,280.190 273.169,280.555 272.612 C 281.352 271.396,281.193 271.302,280.198 272.402 M123.827 275.400 C 125.200 277.200,125.468 277.203,124.304 275.405 C 123.807 274.638,123.256 274.008,123.080 274.005 C 122.903 274.002,123.240 274.630,123.827 275.400 M248.600 275.418 C 247.720 276.181,245.875 277.545,244.500 278.450 C 243.125 279.354,242.000 280.173,242.000 280.271 C 242.000 280.488,242.493 280.203,244.800 278.657 C 247.162 277.074,250.966 273.996,250.537 274.015 C 250.352 274.023,249.480 274.654,248.600 275.418 M277.798 275.602 C 277.398 276.044,277.166 276.499,277.282 276.615 C 277.397 276.730,277.790 276.369,278.155 275.812 C 278.952 274.596,278.793 274.502,277.798 275.602 M125.600 277.455 C 125.600 278.140,133.646 286.800,134.282 286.800 C 134.447 286.800,133.134 285.315,131.363 283.500 C 129.593 281.685,127.572 279.519,126.872 278.686 C 126.173 277.853,125.600 277.299,125.600 277.455 M275.600 278.294 C 275.600 278.894,268.420 286.382,264.697 289.664 C 262.991 291.169,261.761 292.400,261.963 292.400 C 263.035 292.400,276.394 278.660,275.851 278.117 C 275.713 277.979,275.600 278.059,275.600 278.294 M238.311 282.160 C 235.987 283.541,235.982 283.806,238.300 282.641 C 239.455 282.061,240.400 281.500,240.400 281.393 C 240.400 281.049,239.829 281.258,238.311 282.160 M175.400 287.200 C 175.536 287.420,176.042 287.587,176.524 287.572 C 177.369 287.545,177.371 287.531,176.600 287.200 C 175.499 286.727,175.108 286.727,175.400 287.200 M225.800 287.200 C 225.296 287.417,225.222 287.544,225.600 287.544 C 225.930 287.544,226.560 287.389,227.000 287.200 C 227.504 286.983,227.578 286.856,227.200 286.856 C 226.870 286.856,226.240 287.011,225.800 287.200 M178.400 288.000 C 178.730 288.213,179.450 288.373,180.000 288.354 L 181.000 288.320 180.000 288.000 C 178.458 287.506,177.636 287.506,178.400 288.000 M222.400 288.000 L 221.400 288.320 222.400 288.354 C 222.950 288.373,223.670 288.213,224.000 288.000 C 224.764 287.506,223.942 287.506,222.400 288.000 M182.800 288.789 C 183.778 289.113,187.896 289.342,187.567 289.055 C 187.475 288.975,186.140 288.808,184.600 288.684 C 182.896 288.547,182.191 288.588,182.800 288.789 M216.600 288.800 L 214.600 289.074 216.600 289.109 C 217.700 289.128,218.960 288.989,219.400 288.800 L 220.200 288.456 219.400 288.491 C 218.960 288.510,217.700 288.649,216.600 288.800 M138.375 290.692 C 139.379 291.622,140.341 292.387,140.514 292.392 C 140.687 292.396,140.147 291.824,139.314 291.120 C 136.904 289.084,136.385 288.847,138.375 290.692 M141.369 293.149 C 141.759 293.782,144.001 295.299,143.995 294.927 C 143.992 294.747,143.343 294.181,142.552 293.668 C 141.760 293.155,141.228 292.922,141.369 293.149 M256.562 296.062 L 255.800 296.924 256.900 296.216 C 258.034 295.486,258.249 295.200,257.662 295.200 C 257.476 295.200,256.981 295.588,256.562 296.062 M251.800 299.056 C 250.480 299.856,247.797 301.294,245.837 302.251 C 243.878 303.209,242.172 304.095,242.046 304.221 C 241.106 305.161,251.868 299.718,253.634 298.360 C 255.154 297.192,254.413 297.473,251.800 299.056 M150.000 299.167 C 150.963 299.952,151.600 300.208,151.600 299.810 C 151.600 299.706,151.015 299.335,150.300 298.986 L 149.000 298.352 150.000 299.167 M153.600 301.047 C 153.600 301.329,162.388 305.476,163.600 305.765 L 164.600 306.004 163.600 305.542 C 163.050 305.288,160.575 304.128,158.100 302.964 C 155.625 301.800,153.600 300.937,153.600 301.047 M239.800 305.014 C 239.140 305.317,238.870 305.566,239.200 305.568 C 239.530 305.570,240.250 305.314,240.800 305.000 C 242.065 304.277,241.389 304.287,239.800 305.014 M170.400 308.000 C 171.768 308.438,172.819 308.438,171.800 308.000 C 171.360 307.811,170.640 307.662,170.200 307.668 C 169.557 307.677,169.596 307.743,170.400 308.000 M230.600 308.000 C 229.581 308.438,230.632 308.438,232.000 308.000 C 232.804 307.743,232.843 307.677,232.200 307.668 C 231.760 307.662,231.040 307.811,230.600 308.000 M173.600 308.800 C 175.142 309.294,175.964 309.294,175.200 308.800 C 174.870 308.587,174.150 308.427,173.600 308.446 L 172.600 308.480 173.600 308.800 M227.200 308.806 C 226.778 309.082,227.015 309.123,228.000 308.942 C 229.725 308.625,230.051 308.398,228.767 308.406 C 228.235 308.409,227.530 308.589,227.200 308.806 M177.800 309.600 C 178.460 309.768,179.360 309.914,179.800 309.925 L 180.600 309.944 179.800 309.600 C 179.360 309.411,178.460 309.265,177.800 309.275 L 176.600 309.295 177.800 309.600 M222.600 309.600 L 221.800 309.944 222.600 309.925 C 223.040 309.914,223.940 309.768,224.600 309.600 L 225.800 309.295 224.600 309.275 C 223.940 309.265,223.040 309.411,222.600 309.600 M184.400 310.453 C 185.830 310.593,193.390 310.706,201.200 310.706 C 209.010 310.706,216.570 310.593,218.000 310.453 C 219.430 310.314,211.870 310.200,201.200 310.200 C 190.530 310.200,182.970 310.314,184.400 310.453 " stroke="none" fill="#fcb484" fill-rule="evenodd"></path><path id="path4" d="M244.000 104.125 C 244.000 104.194,244.585 104.779,245.300 105.425 L 246.600 106.600 245.425 105.300 C 244.330 104.088,244.000 103.816,244.000 104.125 M247.600 107.725 C 247.600 107.794,248.185 108.379,248.900 109.025 L 250.200 110.200 249.025 108.900 C 247.930 107.688,247.600 107.416,247.600 107.725 M152.575 109.700 L 151.400 111.000 152.700 109.825 C 153.912 108.730,154.184 108.400,153.875 108.400 C 153.806 108.400,153.221 108.985,152.575 109.700 M231.400 122.400 C 232.928 123.940,234.269 125.200,234.379 125.200 C 234.489 125.200,233.328 123.940,231.800 122.400 C 230.272 120.860,228.931 119.600,228.821 119.600 C 228.711 119.600,229.872 120.860,231.400 122.400 M265.693 210.800 C 265.693 211.570,265.775 211.885,265.876 211.500 C 265.976 211.115,265.976 210.485,265.876 210.100 C 265.775 209.715,265.693 210.030,265.693 210.800 M276.514 217.800 C 276.517 218.900,276.595 219.303,276.687 218.695 C 276.779 218.086,276.777 217.186,276.682 216.695 C 276.587 216.203,276.511 216.700,276.514 217.800 M125.701 220.600 C 125.705 221.480,125.787 221.793,125.883 221.295 C 125.979 220.798,125.975 220.078,125.875 219.695 C 125.775 219.313,125.696 219.720,125.701 220.600 M194.300 289.099 C 198.095 289.165,204.305 289.165,208.100 289.099 C 211.895 289.034,208.790 288.980,201.200 288.980 C 193.610 288.980,190.505 289.034,194.300 289.099 " stroke="none" fill="#fcac74" fill-rule="evenodd"></path></g></svg>